<svg width="48" height="48" viewBox="0 0 48 48" fill="none" xmlns="http://www.w3.org/2000/svg">
<path d="M37.5447 24.0001C37.5447 31.4806 31.4806 37.5447 24.0001 37.5447C16.5197 37.5447 10.4556 31.4806 10.4556 24.0001C10.4556 16.5197 16.5197 10.4556 24.0001 10.4556C31.4806 10.4556 37.5447 16.5197 37.5447 24.0001Z" fill="white"/>
<path d="M2.37619 8.79198C2.37619 5.77355 4.82311 3.32663 7.84154 3.32663C10.86 3.32663 13.3069 5.77355 13.3069 8.79198C13.3069 11.8104 10.86 14.2573 7.84154 14.2573C4.82311 14.2573 2.37619 11.8104 2.37619 8.79198Z" fill="white"/>
<path fill-rule="evenodd" clip-rule="evenodd" d="M24 2.85149C12.32 2.85149 2.85149 12.32 2.85149 24C2.85149 35.68 12.32 45.1485 24 45.1485C35.68 45.1485 45.1485 35.68 45.1485 24C45.1485 12.32 35.68 2.85149 24 2.85149ZM0 24C0 10.7452 10.7452 0 24 0C37.2548 0 48 10.7452 48 24C48 37.2548 37.2548 48 24 48C10.7452 48 0 37.2548 0 24Z" fill="white"/>
</svg>
