<svg width="48" height="48" viewBox="0 0 48 48" fill="none" xmlns="http://www.w3.org/2000/svg">
<g clip-path="url(#clip0)">
<path fill-rule="evenodd" clip-rule="evenodd" d="M29.0018 3.8168C30.4221 3.06315 31.7655 2.69629 33.0362 2.69629C34.3214 2.69629 35.3455 2.99572 36.1349 3.5674L36.1417 3.57203C36.9209 4.10948 37.2843 4.78023 37.2843 5.60381C37.2843 6.31079 37.0953 6.90537 36.7276 7.40425L36.7206 7.41449C36.3788 7.91408 36.0149 8.10916 35.628 8.10916C35.3931 8.10916 35.2434 8.02363 35.1314 7.8403C34.9632 7.53078 34.718 6.98401 34.3933 6.18725C34.1153 5.47732 33.7657 4.90811 33.3317 4.50371C32.903 4.04491 32.3475 3.81915 31.6955 3.81915C30.5867 3.81915 29.6694 4.43502 28.9412 5.54306L28.9375 5.54913C28.2555 6.6341 27.589 8.31076 26.9311 10.5539C26.5721 11.7802 26.2871 12.9197 26.0763 13.9719C26.0173 14.2083 25.972 14.4003 25.9413 14.5465C25.9133 14.6797 25.889 14.8104 25.889 14.8988V14.9882C25.889 15.2326 25.9711 15.4708 26.181 15.6358C26.3745 15.7878 26.624 15.8344 26.8693 15.8344C27.4149 15.8344 28.1955 15.8042 29.2071 15.7449L31.3428 15.7012L31.3594 15.7346L31.4001 15.7752C31.4014 15.7766 31.408 15.7831 31.415 15.8042C31.4225 15.8269 31.4302 15.8658 31.4302 15.9267C31.4302 16.0439 31.344 16.2911 31.0495 16.7036L31.0444 16.7107L31.0398 16.718C30.9165 16.9097 30.8092 17.033 30.7216 17.1053C30.6347 17.1768 30.589 17.1807 30.5784 17.1807L26.8203 17.2701C26.32 17.2706 25.8848 17.347 25.5641 17.5474L25.5549 17.5533L25.546 17.5596C25.253 17.7688 25.0681 18.0871 24.964 18.4662C23.0834 24.8495 22.6816 26.8241 21.4401 32.9259L21.2581 33.8203L21.2564 33.8285L21.2551 33.8368C21.0873 34.9203 20.6166 36.2252 20.075 37.4602C19.5358 38.6898 18.9365 39.8272 18.5256 40.5696C17.7103 42.043 16.839 43.2217 15.9153 44.1144L15.9111 44.1186C15.0069 45.0225 14.13 45.6808 13.2814 46.105C12.5752 46.458 12.0142 46.7029 11.5922 46.8473L11.4033 46.3861C11.7583 46.1647 12.1513 45.8467 12.5806 45.4432C13.1529 44.9373 13.6973 44.2575 14.2169 43.4138C14.7746 42.5604 15.2775 41.5196 15.7286 40.2965C16.2082 39.1124 17.1861 36.2974 17.4493 34.666L20.9114 18.6547C20.9531 18.5194 20.9677 18.3652 20.9677 18.2057C20.9677 17.9535 20.8646 17.7238 20.6421 17.5754C20.4451 17.4441 20.1943 17.4041 19.9428 17.4041L17.2586 17.4489C17.075 17.4485 16.9883 17.414 16.9502 17.389C16.9279 17.3451 16.9012 17.2555 16.9012 17.0885C16.9012 16.8918 16.9782 16.6701 17.1797 16.4178C17.3966 16.1532 17.624 16.0343 17.8659 16.0125L20.7729 15.8783L20.7824 15.8774C21.301 15.8255 21.5811 15.4021 21.7145 14.904L22.0707 13.6577C22.8365 11.0958 23.8329 9.00731 25.0523 7.38128C26.3112 5.7125 27.6286 4.53198 28.9994 3.81807L29.0018 3.8168Z" fill="white"/>
</g>
<defs>
<clipPath id="clip0">
<path d="M0 24C0 10.7452 10.7452 0 24 0C37.2548 0 48 10.7452 48 24C48 37.2548 37.2548 48 24 48C10.7452 48 0 37.2548 0 24Z" fill="white"/>
</clipPath>
</defs>
</svg>
