<svg width="48" height="48" viewBox="0 0 48 48" fill="none" xmlns="http://www.w3.org/2000/svg">
<g clip-path="url(#clip0)">
<path d="M12.405 47.9432C7.39789 47.9432 2.88025 44.9314 0.960246 40.3008C-0.959754 35.6702 0.0943636 30.3432 3.65201 26.8043L3.74613 26.7102L20.1414 10.3149L22.8144 12.9879L6.34377 29.4773C4.10378 31.642 3.20025 34.842 3.99083 37.8538C4.78142 40.8655 7.13436 43.2185 10.1461 44.0091C13.1579 44.7996 16.3579 43.8961 18.5226 41.6749C18.5602 41.6373 20.1038 40.0938 20.1038 40.0938L22.7767 42.7667L21.1955 44.3667C18.8426 46.6443 15.6991 47.9432 12.405 47.9432Z" fill="white" fill-opacity="0.75"/>
<path d="M34.9936 22.7758L18.5042 6.28643C16.3207 4.12172 13.1583 3.27466 10.1842 4.06525C7.21008 4.85584 4.89479 7.18996 4.08538 10.1453C3.29479 13.1194 4.14185 16.2817 6.30655 18.4653L7.88773 20.0464L5.21479 22.7194L3.63361 21.1382C0.508906 18.0135 -0.714624 13.4394 0.433612 9.16643C1.58185 4.89349 4.91361 1.5429 9.18655 0.413487C13.4595 -0.715924 18.0336 0.488782 21.1583 3.61349L21.2524 3.70761L37.6666 20.1029L34.9936 22.7758Z" fill="white" fill-opacity="0.5"/>
<path d="M27.8966 37.6841L25.2236 35.03L41.713 18.5406C44.9883 15.1711 44.9319 9.78761 41.6189 6.45585C38.2872 3.12408 32.9225 3.08644 29.5342 6.36173L27.953 7.94291L25.2801 5.26996L26.8613 3.68879C29.986 0.564082 34.5601 -0.659448 38.833 0.488788C43.106 1.63702 46.4566 4.96879 47.586 9.24173C48.7342 13.5147 47.5107 18.0888 44.386 21.2135L27.8966 37.6841Z" fill="white" fill-opacity="0.75"/>
<path d="M35.6139 47.9994C32.3198 48.0182 29.1763 46.7006 26.861 44.3664L10.3716 27.877L13.0445 25.2041L29.5339 41.6935C32.9033 45.0629 38.3433 45.0629 41.7128 41.6935C45.0822 38.3241 45.0822 32.8841 41.7128 29.5147L40.1316 27.9335L42.8045 25.2606L44.3857 26.8418C47.9245 30.3806 48.9975 35.7076 47.0775 40.3382C45.1386 44.9688 40.621 47.9994 35.6139 47.9994Z" fill="white"/>
</g>
<defs>
<clipPath id="clip0">
<rect width="48" height="48" fill="white" transform="translate(0 -0.000488281)"/>
</clipPath>
</defs>
</svg>
