<svg width="48" height="48" viewBox="0 0 48 48" fill="none" xmlns="http://www.w3.org/2000/svg">
<path d="M29.7281 31.8269C29.7281 39.8759 23.2031 46.4009 15.1541 46.4009C7.10509 46.4009 0.580078 39.8759 0.580078 31.8269C0.580078 23.7779 7.10509 17.2529 15.1541 17.2529C23.2031 17.2529 29.7281 23.7779 29.7281 31.8269Z" fill="white" fill-opacity="0.1"/>
<path d="M47.42 31.8269C47.42 39.8759 40.895 46.4009 32.846 46.4009C24.797 46.4009 18.272 39.8759 18.272 31.8269C18.272 23.7779 24.797 17.2529 32.846 17.2529C40.895 17.2529 47.42 23.7779 47.42 31.8269Z" fill="white" fill-opacity="0.1"/>
<path d="M38.5738 16.3103C38.5738 24.3593 32.0488 30.8844 23.9998 30.8844C15.9508 30.8844 9.42578 24.3593 9.42578 16.3103C9.42578 8.26134 15.9508 1.73633 23.9998 1.73633C32.0488 1.73633 38.5738 8.26134 38.5738 16.3103Z" fill="white" fill-opacity="0.1"/>
<path fill-rule="evenodd" clip-rule="evenodd" d="M24 43.4103C27.4821 40.7471 29.7281 36.5493 29.7281 31.827C29.7281 27.1046 27.4821 22.9069 24 20.2437C20.518 22.9069 18.272 27.1046 18.272 31.827C18.272 36.5493 20.518 40.7471 24 43.4103Z" fill="white" fill-opacity="0.2"/>
<path fill-rule="evenodd" clip-rule="evenodd" d="M18.415 29.7759C19.4119 22.6981 25.493 17.2529 32.8459 17.2529C34.8243 17.2529 36.7107 17.6472 38.4307 18.3613C37.4338 25.4392 31.3527 30.8844 23.9999 30.8844C22.0214 30.8844 20.1351 30.4901 18.415 29.7759Z" fill="white" fill-opacity="0.2"/>
<path fill-rule="evenodd" clip-rule="evenodd" d="M9.56934 18.3614C11.2894 17.6472 13.1758 17.2529 15.1542 17.2529C22.5071 17.2529 28.5882 22.6981 29.5851 29.7759C27.865 30.4901 25.9786 30.8844 24.0002 30.8844C16.6473 30.8844 10.5662 25.4392 9.56934 18.3614Z" fill="white" fill-opacity="0.2"/>
<path fill-rule="evenodd" clip-rule="evenodd" d="M18.415 29.776C18.9609 25.9003 21.0312 22.5143 23.9999 20.2437C26.9687 22.5143 29.0389 25.9003 29.5848 29.7759C27.8648 30.4901 25.9784 30.8844 23.9999 30.8844C22.0214 30.8844 20.1351 30.4902 18.415 29.776Z" fill="white" fill-opacity="0.2"/>
<path fill-rule="evenodd" clip-rule="evenodd" d="M8.93926 18.0018C8.87759 17.4465 8.84592 16.8821 8.84592 16.3103C8.84592 7.94096 15.6306 1.15625 24 1.15625C32.3694 1.15625 39.1541 7.94096 39.1541 16.3103C39.1541 16.8821 39.1224 17.4465 39.0607 18.0018C44.3309 20.3745 48 25.6723 48 31.8269C48 40.1963 41.2153 46.981 32.8459 46.981C29.5443 46.981 26.4892 45.9251 24 44.1326C21.5108 45.9251 18.4557 46.981 15.1541 46.981C6.78471 46.981 0 40.1963 0 31.8269C0 25.6723 3.66908 20.3745 8.93926 18.0018ZM10.006 16.3103C10.006 8.58168 16.2714 2.31637 24 2.31637C31.7286 2.31637 37.994 8.58168 37.994 16.3103C37.994 16.7282 37.9756 17.1417 37.9398 17.5503C36.3478 16.9822 34.633 16.6729 32.8459 16.6729C29.5443 16.6729 26.4892 17.7287 24 19.5212C21.5108 17.7287 18.4557 16.6729 15.1541 16.6729C13.367 16.6729 11.6522 16.9822 10.0602 17.5503C10.0244 17.1417 10.006 16.7282 10.006 16.3103ZM37.7856 18.7297C36.2496 18.1501 34.5848 17.833 32.8459 17.833C29.9187 17.833 27.2014 18.7318 24.9549 20.2684C27.532 22.4558 29.3681 25.4896 30.0336 28.9404C34.0442 27.021 36.9982 23.2474 37.7856 18.7297ZM30.2148 30.1355C34.6398 28.1433 37.936 24.0891 38.8795 19.1969C43.5878 21.4502 46.8399 26.2588 46.8399 31.8269C46.8399 39.5556 40.5746 45.8209 32.8459 45.8209C29.9187 45.8209 27.2014 44.9221 24.9549 43.3855C28.2299 40.6058 30.3082 36.4591 30.3082 31.8269C30.3082 31.2552 30.2765 30.6908 30.2148 30.1355ZM28.9397 29.4075C28.3506 26.028 26.5492 23.0649 24 20.9829C21.4508 23.0649 19.6494 26.028 19.0603 29.4075C20.5964 29.9871 22.2611 30.3043 24 30.3043C25.7389 30.3043 27.4036 29.9871 28.9397 29.4075ZM18.9061 30.587C20.4981 31.1551 22.2129 31.4644 24 31.4644C25.7871 31.4644 27.5019 31.1551 29.0939 30.587C29.1297 30.9955 29.148 31.4091 29.148 31.8269C29.148 36.2001 27.142 40.1048 24 42.671C20.858 40.1048 18.852 36.2001 18.852 31.8269C18.852 31.4091 18.8703 30.9955 18.9061 30.587ZM17.7852 30.1355C17.7235 30.6908 17.6918 31.2552 17.6918 31.8269C17.6918 36.4591 19.7701 40.6058 23.0451 43.3855C20.7986 44.9221 18.0813 45.8209 15.1541 45.8209C7.42543 45.8209 1.16012 39.5556 1.16012 31.8269C1.16012 26.2588 4.41216 21.4502 9.12051 19.1969C10.064 24.0891 13.3602 28.1433 17.7852 30.1355ZM17.9664 28.9404C13.9558 27.021 11.0018 23.2474 10.2144 18.7297C11.7504 18.1501 13.4152 17.833 15.1541 17.833C18.0813 17.833 20.7986 18.7318 23.0451 20.2684C20.468 22.4558 18.6319 25.4896 17.9664 28.9404Z" fill="white"/>
</svg>
