<svg width="48" height="48" viewBox="0 0 48 48" fill="none" xmlns="http://www.w3.org/2000/svg">
<path d="M21.4741 16.4235L15.3706 3.90077L16.7386 2.11182L19.0537 2.63798L21.4741 16.4235Z" fill="white"/>
<path d="M30.4641 19.3101L40.5675 9.71889L42.6854 10.4847L42.8808 12.8508L30.4641 19.3101Z" fill="white"/>
<path d="M30.4495 28.7102L42.6818 35.3767L42.604 37.6274L40.4125 38.5406L30.4495 28.7102Z" fill="white"/>
<path d="M21.6137 31.622L19.2344 45.3482L17.0782 45.9982L15.5088 44.2168L21.6137 31.622Z" fill="white"/>
<path d="M16.0131 24.033L2.21075 25.9214L0.938374 24.0632L2.16109 22.0281L16.0131 24.033Z" fill="white"/>
<path d="M18.293 18.412L13.6868 15.3706L13.8072 14.0004L15.2653 13.7921L18.293 18.412Z" fill="white"/>
<path d="M23.9086 16.0132L22.7973 10.6066L23.8506 9.72181L25.0297 10.6045L23.9086 16.0132Z" fill="white"/>
<path d="M27.8106 16.9805L29.4738 11.7173L30.8246 11.4577L31.4244 12.803L27.8106 16.9805Z" fill="white"/>
<path d="M31.9865 24.0036L37.4061 22.957L38.2782 24.0207L37.3815 25.1892L31.9865 24.0036Z" fill="white"/>
<path d="M26.5335 31.5736L29.2478 36.3798L28.5163 37.5447L27.1234 37.0657L26.5335 31.5736Z" fill="white"/>
<path d="M23.9996 31.9859L25.0488 37.4049L23.9855 38.2775L22.8166 37.3814L23.9996 31.9859Z" fill="white"/>
<path d="M19.2533 30.423L16.8767 35.4048L15.503 35.4747L15.0954 34.0593L19.2533 30.423Z" fill="white"/>
<path d="M17.4866 28.6217L13.6747 32.6137L12.3477 32.2516L12.4019 30.7797L17.4866 28.6217Z" fill="white"/>
<path d="M16.4051 26.4706L11.5767 29.1451L10.4179 28.404L10.9084 27.0151L16.4051 26.4706Z" fill="white"/>
</svg>
