<svg width="532" height="396" viewBox="0 0 532 396" fill="none" xmlns="http://www.w3.org/2000/svg">
<path d="M475.17 277.464L488.381 302.784H461.96L475.17 277.464Z" fill="url(#paint0_linear)"/>
<path d="M475.17 328.104L488.381 302.784H461.96L475.17 328.104Z" fill="url(#paint1_linear)"/>
<path d="M475.17 277.464L481.751 302.784H468.59L475.17 277.464Z" fill="url(#paint2_linear)"/>
<path d="M475.17 328.104L481.751 302.784H468.59L475.17 328.104Z" fill="url(#paint3_linear)"/>
<path d="M376.092 5L389.303 30.3199H362.882L376.092 5Z" fill="url(#paint4_linear)"/>
<path d="M376.092 55.6397L389.303 30.3198H362.882L376.092 55.6397Z" fill="url(#paint5_linear)"/>
<path d="M376.093 5L382.673 30.3199H369.512L376.093 5Z" fill="url(#paint6_linear)"/>
<path d="M376.093 55.6397L382.673 30.3198H369.512L376.093 55.6397Z" fill="url(#paint7_linear)"/>
<path d="M155.92 5L169.13 30.3199H142.709L155.92 5Z" fill="url(#paint8_linear)"/>
<path d="M155.92 55.6397L169.13 30.3198H142.709L155.92 55.6397Z" fill="url(#paint9_linear)"/>
<path d="M155.92 5L162.5 30.3199H149.339L155.92 5Z" fill="url(#paint10_linear)"/>
<path d="M155.92 55.6397L162.5 30.3198H149.339L155.92 55.6397Z" fill="url(#paint11_linear)"/>
<path d="M266.556 340.215L279.767 365.535H253.346L266.556 340.215Z" fill="url(#paint12_radial)"/>
<path d="M266.556 390.855L279.767 365.535H253.346L266.556 390.855Z" fill="url(#paint13_radial)"/>
<path d="M266.556 340.215L273.137 365.535H259.976L266.556 340.215Z" fill="url(#paint14_linear)"/>
<path d="M266.556 390.855L273.137 365.535H259.976L266.556 390.855Z" fill="url(#paint15_linear)"/>
<path d="M56.8415 277.464L70.0519 302.784H43.6311L56.8415 277.464Z" fill="url(#paint16_linear)"/>
<path d="M56.8415 328.104L70.0519 302.784H43.6311L56.8415 328.104Z" fill="url(#paint17_linear)"/>
<path d="M56.8416 277.464L63.4224 302.784H50.2607L56.8416 277.464Z" fill="url(#paint18_linear)"/>
<path d="M56.8416 328.104L63.4224 302.784H50.2607L56.8416 328.104Z" fill="url(#paint19_linear)"/>
<path d="M514.801 110.133L528.011 135.453H501.59L514.801 110.133Z" fill="url(#paint20_linear)"/>
<path d="M514.801 160.773L528.011 135.453H501.59L514.801 160.773Z" fill="url(#paint21_linear)"/>
<path d="M514.801 110.133L521.382 135.453H508.22L514.801 110.133Z" fill="url(#paint22_linear)"/>
<path d="M514.801 160.773L521.382 135.453H508.22L514.801 160.773Z" fill="url(#paint23_linear)"/>
<path d="M17.2104 110.132L30.4207 135.452H4L17.2104 110.132Z" fill="url(#paint24_linear)"/>
<path d="M17.2104 160.772L30.4207 135.452H4L17.2104 160.772Z" fill="url(#paint25_linear)"/>
<path d="M17.2105 110.132L23.7913 135.452H10.6296L17.2105 110.132Z" fill="url(#paint26_linear)"/>
<path d="M17.2105 160.772L23.7913 135.452H10.6296L17.2105 160.772Z" fill="url(#paint27_linear)"/>
<defs>
<linearGradient id="paint0_linear" x1="475.17" y1="277.464" x2="475.17" y2="302.784" gradientUnits="userSpaceOnUse">
<stop stop-color="#5FCF5F"/>
<stop offset="1" stop-color="#42CD42"/>
</linearGradient>
<linearGradient id="paint1_linear" x1="475.17" y1="302.784" x2="475.17" y2="328.104" gradientUnits="userSpaceOnUse">
<stop stop-color="#36B836"/>
<stop offset="1" stop-color="#177617"/>
</linearGradient>
<linearGradient id="paint2_linear" x1="475.17" y1="277.464" x2="475.17" y2="302.784" gradientUnits="userSpaceOnUse">
<stop stop-color="#74D474"/>
<stop offset="1" stop-color="#68F668"/>
</linearGradient>
<linearGradient id="paint3_linear" x1="475.17" y1="302.784" x2="475.17" y2="328.104" gradientUnits="userSpaceOnUse">
<stop stop-color="#40CC40"/>
<stop offset="1" stop-color="#179417"/>
</linearGradient>
<linearGradient id="paint4_linear" x1="376.092" y1="5" x2="376.092" y2="30.3199" gradientUnits="userSpaceOnUse">
<stop stop-color="#83A3F1"/>
<stop offset="1" stop-color="#6D95F8"/>
</linearGradient>
<linearGradient id="paint5_linear" x1="376.092" y1="30.3198" x2="376.092" y2="55.6397" gradientUnits="userSpaceOnUse">
<stop stop-color="#5E83E0"/>
<stop offset="1" stop-color="#355094"/>
</linearGradient>
<linearGradient id="paint6_linear" x1="376.093" y1="5" x2="376.093" y2="30.3199" gradientUnits="userSpaceOnUse">
<stop stop-color="#92ADF0"/>
<stop offset="1" stop-color="#A1BDFF"/>
</linearGradient>
<linearGradient id="paint7_linear" x1="376.093" y1="30.3198" x2="376.093" y2="55.6397" gradientUnits="userSpaceOnUse">
<stop stop-color="#6B94F7"/>
<stop offset="1" stop-color="#3D61B9"/>
</linearGradient>
<linearGradient id="paint8_linear" x1="155.92" y1="5" x2="155.92" y2="30.3199" gradientUnits="userSpaceOnUse">
<stop offset="0.333333" stop-color="#DA78E7"/>
<stop offset="1" stop-color="#8F82FF"/>
</linearGradient>
<linearGradient id="paint9_linear" x1="155.92" y1="30.3198" x2="155.92" y2="55.6397" gradientUnits="userSpaceOnUse">
<stop stop-color="#7D70F3"/>
<stop offset="1" stop-color="#4F45A6"/>
</linearGradient>
<linearGradient id="paint10_linear" x1="155.92" y1="5" x2="155.92" y2="30.3199" gradientUnits="userSpaceOnUse">
<stop offset="0.302083" stop-color="#DD89E9"/>
<stop offset="1" stop-color="#B8B0FF"/>
</linearGradient>
<linearGradient id="paint11_linear" x1="155.92" y1="30.3198" x2="155.92" y2="55.6397" gradientUnits="userSpaceOnUse">
<stop stop-color="#8E81FF"/>
<stop offset="1" stop-color="#5D50CD"/>
</linearGradient>
<radialGradient id="paint12_radial" cx="0" cy="0" r="1" gradientUnits="userSpaceOnUse" gradientTransform="translate(258.006 360.758) rotate(-47.2906) scale(26.5377 27.6915)">
<stop offset="0.332096" stop-color="#8787FF"/>
<stop offset="0.554" stop-color="#40CA54"/>
<stop offset="0.697238" stop-color="#7ABDD6"/>
</radialGradient>
<radialGradient id="paint13_radial" cx="0" cy="0" r="1" gradientUnits="userSpaceOnUse" gradientTransform="translate(275.506 365.758) rotate(175.515) scale(25.5783 26.6904)">
<stop offset="0.119972" stop-color="#988618"/>
<stop offset="0.676137" stop-color="#D553A0"/>
<stop offset="0.861825" stop-color="#B5393F"/>
</radialGradient>
<linearGradient id="paint14_linear" x1="266.556" y1="340.215" x2="266.556" y2="365.535" gradientUnits="userSpaceOnUse">
<stop offset="0.302083" stop-color="#7ABDD7"/>
<stop offset="1" stop-color="#B3B3FF"/>
</linearGradient>
<linearGradient id="paint15_linear" x1="266.556" y1="365.535" x2="266.556" y2="390.855" gradientUnits="userSpaceOnUse">
<stop stop-color="#8686FF"/>
<stop offset="0.6875" stop-color="#B73A41"/>
</linearGradient>
<linearGradient id="paint16_linear" x1="56.8415" y1="277.464" x2="56.8415" y2="302.784" gradientUnits="userSpaceOnUse">
<stop stop-color="#5FCD74"/>
<stop offset="1" stop-color="#83E296"/>
</linearGradient>
<linearGradient id="paint17_linear" x1="56.8415" y1="302.784" x2="56.8415" y2="328.104" gradientUnits="userSpaceOnUse">
<stop stop-color="#33B54C"/>
<stop offset="1" stop-color="#147126"/>
</linearGradient>
<linearGradient id="paint18_linear" x1="56.8416" y1="277.464" x2="56.8416" y2="302.784" gradientUnits="userSpaceOnUse">
<stop stop-color="#73CF85"/>
<stop offset="1" stop-color="#C4F8CE"/>
</linearGradient>
<linearGradient id="paint19_linear" x1="56.8416" y1="302.784" x2="56.8416" y2="328.104" gradientUnits="userSpaceOnUse">
<stop stop-color="#3DC958"/>
<stop offset="1" stop-color="#15922E"/>
</linearGradient>
<linearGradient id="paint20_linear" x1="514.801" y1="110.133" x2="514.801" y2="135.453" gradientUnits="userSpaceOnUse">
<stop stop-color="#A2A2A2"/>
<stop offset="1" stop-color="#BCBCBC"/>
</linearGradient>
<linearGradient id="paint21_linear" x1="514.801" y1="135.453" x2="514.801" y2="160.773" gradientUnits="userSpaceOnUse">
<stop stop-color="#929292"/>
<stop offset="1" stop-color="#494949"/>
</linearGradient>
<linearGradient id="paint22_linear" x1="514.801" y1="110.133" x2="514.801" y2="135.453" gradientUnits="userSpaceOnUse">
<stop stop-color="#ACACAC"/>
<stop offset="1" stop-color="#E4E4E4"/>
</linearGradient>
<linearGradient id="paint23_linear" x1="514.801" y1="135.453" x2="514.801" y2="160.773" gradientUnits="userSpaceOnUse">
<stop stop-color="#A8A8A8"/>
<stop offset="1" stop-color="#626262"/>
</linearGradient>
<linearGradient id="paint24_linear" x1="17.2104" y1="110.132" x2="17.2104" y2="135.452" gradientUnits="userSpaceOnUse">
<stop stop-color="#FF8072"/>
<stop offset="1" stop-color="#FFA096"/>
</linearGradient>
<linearGradient id="paint25_linear" x1="17.2104" y1="135.452" x2="17.2104" y2="160.772" gradientUnits="userSpaceOnUse">
<stop stop-color="#FF6453"/>
<stop offset="1" stop-color="#D11E0B"/>
</linearGradient>
<linearGradient id="paint26_linear" x1="17.2105" y1="110.132" x2="17.2105" y2="135.452" gradientUnits="userSpaceOnUse">
<stop stop-color="#FF9287"/>
<stop offset="1" stop-color="#FFD9D4"/>
</linearGradient>
<linearGradient id="paint27_linear" x1="17.2105" y1="135.452" x2="17.2105" y2="160.772" gradientUnits="userSpaceOnUse">
<stop stop-color="#FF8376"/>
<stop offset="1" stop-color="#E83522"/>
</linearGradient>
</defs>
</svg>
