<svg width="698" height="698" viewBox="0 0 698 698" fill="none" xmlns="http://www.w3.org/2000/svg">
<circle r="313.746" transform="matrix(-1 0 0 1 315 366.746)" fill="url(#paint0_radial)"/>
<g opacity="0.3">
<g filter="url(#filter0_i)">
<ellipse cx="315" cy="437.204" rx="382" ry="248.795" fill="white" fill-opacity="0.01"/>
</g>
<ellipse cx="315" cy="437.204" rx="382" ry="248.795" stroke="#636CBD"/>
</g>
<g opacity="0.3">
<g filter="url(#filter1_i)">
<ellipse cx="315" cy="406.928" rx="296.683" ry="193.202" fill="white" fill-opacity="0.01"/>
</g>
<ellipse cx="315" cy="406.928" rx="296.683" ry="193.202" stroke="#636CBD"/>
</g>
<path d="M560.288 381.334C560.288 425.054 533.052 464.809 488.656 493.696C444.272 522.575 382.879 540.48 315 540.48C247.12 540.48 185.728 522.575 141.344 493.696C96.9482 464.809 69.712 425.054 69.712 381.334C69.712 337.614 96.9482 297.86 141.344 268.973C185.728 240.094 247.12 222.189 315 222.189C382.879 222.189 444.272 240.094 488.656 268.973C533.052 297.86 560.288 337.614 560.288 381.334Z" stroke="url(#paint1_angular)" stroke-width="2.61151"/>
<g opacity="0.3">
<g filter="url(#filter2_i)">
<ellipse cx="315" cy="374.729" rx="209.164" ry="136.232" fill="white" fill-opacity="0.01"/>
</g>
<ellipse cx="315" cy="374.729" rx="209.164" ry="136.232" stroke="#636CBD"/>
</g>
<g filter="url(#filter3_ddd)">
<circle cx="315" cy="349.133" r="93.5735" fill="url(#paint2_linear)"/>
<circle cx="315" cy="349.133" r="92.0735" stroke="#B3C7FF" stroke-opacity="0.38" stroke-width="3"/>
</g>
<g opacity="0.4" filter="url(#filter4_d)">
<path fill-rule="evenodd" clip-rule="evenodd" d="M285.486 392.26L296.783 372.694L285.486 353.129L262.894 353.129L251.597 372.694L262.894 392.26L285.486 392.26ZM261.736 394.265L286.644 394.265L299.098 372.694L286.644 351.123L261.736 351.123L249.282 372.694L261.736 394.265Z" fill="white"/>
</g>
<g opacity="0.4" filter="url(#filter5_d)">
<path fill-rule="evenodd" clip-rule="evenodd" d="M337.593 396.256L326.297 376.69L303.704 376.69L292.407 396.256L303.704 415.822L326.296 415.822L337.593 396.256ZM327.454 417.827L339.908 396.256L327.454 374.685L302.546 374.685L290.092 396.256L302.546 417.827L327.454 417.827Z" fill="white"/>
</g>
<g opacity="0.7" filter="url(#filter6_d)">
<path fill-rule="evenodd" clip-rule="evenodd" d="M344.514 392.26L367.106 392.26L378.403 372.694L367.106 353.128L344.514 353.128L333.217 372.694L344.514 392.26ZM330.902 372.694L343.356 394.265L368.264 394.265L380.718 372.694L368.264 351.123L343.356 351.123L330.902 372.694Z" fill="white"/>
</g>
<g filter="url(#filter7_d)">
<path fill-rule="evenodd" clip-rule="evenodd" d="M367.106 345.137L378.402 325.571L367.106 306.005L344.513 306.005L333.217 325.571L344.513 345.137L367.106 345.137ZM343.356 347.142L368.264 347.142L380.718 325.571L368.264 304L343.356 304L330.902 325.571L343.356 347.142Z" fill="white"/>
</g>
<g opacity="0.8" filter="url(#filter8_d)">
<path fill-rule="evenodd" clip-rule="evenodd" d="M337.593 302.009L326.297 282.444L303.704 282.444L292.407 302.009L303.704 321.575L326.296 321.575L337.593 302.009ZM327.454 323.58L339.908 302.009L327.454 280.438L302.546 280.438L290.092 302.009L302.546 323.58L327.454 323.58Z" fill="white"/>
</g>
<g opacity="0.4" filter="url(#filter9_d)">
<path fill-rule="evenodd" clip-rule="evenodd" d="M262.893 345.137L285.486 345.137L296.782 325.571L285.486 306.005L262.893 306.005L251.597 325.571L262.893 345.137ZM249.282 325.571L261.736 347.142L286.644 347.142L299.098 325.571L286.644 304L261.736 304L249.282 325.571Z" fill="white"/>
</g>
<g filter="url(#filter10_d)">
<path fill-rule="evenodd" clip-rule="evenodd" d="M337.592 349.133L326.296 329.567L303.703 329.567L292.407 349.133L303.703 368.699L326.296 368.699L337.592 349.133ZM327.453 370.704L339.907 349.133L327.453 327.562L302.545 327.562L290.091 349.133L302.545 370.704L327.453 370.704Z" fill="white"/>
</g>
<path d="M524.164 442.706L537.375 468.026H510.954L524.164 442.706Z" fill="url(#paint3_linear)"/>
<path d="M524.164 493.346L537.375 468.026H510.954L524.164 493.346Z" fill="url(#paint4_linear)"/>
<path d="M524.164 442.706L530.745 468.026H517.583L524.164 442.706Z" fill="url(#paint5_linear)"/>
<path d="M524.164 493.346L530.745 468.026H517.583L524.164 493.346Z" fill="url(#paint6_linear)"/>
<path d="M425.086 170.242L438.297 195.562H411.876L425.086 170.242Z" fill="url(#paint7_linear)"/>
<path d="M425.086 220.882L438.297 195.562H411.876L425.086 220.882Z" fill="url(#paint8_linear)"/>
<path d="M425.086 170.242L431.667 195.562H418.505L425.086 170.242Z" fill="url(#paint9_linear)"/>
<path d="M425.086 220.882L431.667 195.562H418.505L425.086 220.882Z" fill="url(#paint10_linear)"/>
<path d="M204.914 170.242L218.124 195.562H191.703L204.914 170.242Z" fill="url(#paint11_linear)"/>
<path d="M204.914 220.882L218.124 195.562H191.703L204.914 220.882Z" fill="url(#paint12_linear)"/>
<path d="M204.914 170.242L211.495 195.562H198.333L204.914 170.242Z" fill="url(#paint13_linear)"/>
<path d="M204.914 220.882L211.495 195.562H198.333L204.914 220.882Z" fill="url(#paint14_linear)"/>
<path d="M315.55 505.457L328.761 530.777H302.34L315.55 505.457Z" fill="url(#paint15_angular)"/>
<path d="M315.55 556.097L328.761 530.777H302.34L315.55 556.097Z" fill="url(#paint16_angular)"/>
<path d="M315.551 505.457L322.131 530.777H308.97L315.551 505.457Z" fill="url(#paint17_linear)"/>
<path d="M315.551 556.097L322.131 530.777H308.97L315.551 556.097Z" fill="url(#paint18_linear)"/>
<path d="M105.836 442.706L119.046 468.026H92.6252L105.836 442.706Z" fill="url(#paint19_linear)"/>
<path d="M105.836 493.346L119.046 468.026H92.6252L105.836 493.346Z" fill="url(#paint20_linear)"/>
<path d="M105.836 442.706L112.417 468.026H99.2549L105.836 442.706Z" fill="url(#paint21_linear)"/>
<path d="M105.836 493.346L112.417 468.026H99.2549L105.836 493.346Z" fill="url(#paint22_linear)"/>
<path d="M563.795 275.375L577.005 300.695H550.584L563.795 275.375Z" fill="url(#paint23_linear)"/>
<path d="M563.795 326.015L577.005 300.695H550.584L563.795 326.015Z" fill="url(#paint24_linear)"/>
<path d="M563.795 275.375L570.375 300.695H557.214L563.795 275.375Z" fill="url(#paint25_linear)"/>
<path d="M563.795 326.015L570.375 300.695H557.214L563.795 326.015Z" fill="url(#paint26_linear)"/>
<path d="M66.2045 275.375L79.4149 300.695H52.9941L66.2045 275.375Z" fill="url(#paint27_linear)"/>
<path d="M66.2045 326.015L79.4149 300.695H52.9941L66.2045 326.015Z" fill="url(#paint28_linear)"/>
<path d="M66.2046 275.375L72.7854 300.695H59.6238L66.2046 275.375Z" fill="url(#paint29_linear)"/>
<path d="M66.2046 326.015L72.7854 300.695H59.6238L66.2046 326.015Z" fill="url(#paint30_linear)"/>
<defs>
<filter id="filter0_i" x="-67.5" y="187.908" width="765" height="498.591" filterUnits="userSpaceOnUse" color-interpolation-filters="sRGB">
<feFlood flood-opacity="0" result="BackgroundImageFix"/>
<feBlend mode="normal" in="SourceGraphic" in2="BackgroundImageFix" result="shape"/>
<feColorMatrix in="SourceAlpha" type="matrix" values="0 0 0 0 0 0 0 0 0 0 0 0 0 0 0 0 0 0 127 0" result="hardAlpha"/>
<feOffset dx="3" dy="3"/>
<feComposite in2="hardAlpha" operator="arithmetic" k2="-1" k3="1"/>
<feColorMatrix type="matrix" values="0 0 0 0 0.388235 0 0 0 0 0.423529 0 0 0 0 0.741176 0 0 0 1 0"/>
<feBlend mode="normal" in2="shape" result="effect1_innerShadow"/>
</filter>
<filter id="filter1_i" x="17.8171" y="213.226" width="594.366" height="387.403" filterUnits="userSpaceOnUse" color-interpolation-filters="sRGB">
<feFlood flood-opacity="0" result="BackgroundImageFix"/>
<feBlend mode="normal" in="SourceGraphic" in2="BackgroundImageFix" result="shape"/>
<feColorMatrix in="SourceAlpha" type="matrix" values="0 0 0 0 0 0 0 0 0 0 0 0 0 0 0 0 0 0 127 0" result="hardAlpha"/>
<feOffset dx="-5" dy="-2"/>
<feComposite in2="hardAlpha" operator="arithmetic" k2="-1" k3="1"/>
<feColorMatrix type="matrix" values="0 0 0 0 0.388235 0 0 0 0 0.423529 0 0 0 0 0.741176 0 0 0 1 0"/>
<feBlend mode="normal" in2="shape" result="effect1_innerShadow"/>
</filter>
<filter id="filter2_i" x="105.336" y="237.997" width="419.329" height="273.464" filterUnits="userSpaceOnUse" color-interpolation-filters="sRGB">
<feFlood flood-opacity="0" result="BackgroundImageFix"/>
<feBlend mode="normal" in="SourceGraphic" in2="BackgroundImageFix" result="shape"/>
<feColorMatrix in="SourceAlpha" type="matrix" values="0 0 0 0 0 0 0 0 0 0 0 0 0 0 0 0 0 0 127 0" result="hardAlpha"/>
<feOffset dx="5" dy="-2"/>
<feComposite in2="hardAlpha" operator="arithmetic" k2="-1" k3="1"/>
<feColorMatrix type="matrix" values="0 0 0 0 0.388235 0 0 0 0 0.423529 0 0 0 0 0.741176 0 0 0 1 0"/>
<feBlend mode="normal" in2="shape" result="effect1_innerShadow"/>
</filter>
<filter id="filter3_ddd" x="-33.7801" y="0.352493" width="697.56" height="697.56" filterUnits="userSpaceOnUse" color-interpolation-filters="sRGB">
<feFlood flood-opacity="0" result="BackgroundImageFix"/>
<feColorMatrix in="SourceAlpha" type="matrix" values="0 0 0 0 0 0 0 0 0 0 0 0 0 0 0 0 0 0 127 0"/>
<feOffset dy="79.7521"/>
<feGaussianBlur stdDeviation="71.7769"/>
<feColorMatrix type="matrix" values="0 0 0 0 0.15 0 0 0 0 0.235 0 0 0 0 1 0 0 0 0.7 0"/>
<feBlend mode="normal" in2="BackgroundImageFix" result="effect1_dropShadow"/>
<feColorMatrix in="SourceAlpha" type="matrix" values="0 0 0 0 0 0 0 0 0 0 0 0 0 0 0 0 0 0 127 0"/>
<feOffset/>
<feGaussianBlur stdDeviation="39.876"/>
<feColorMatrix type="matrix" values="0 0 0 0 0.14902 0 0 0 0 0.235294 0 0 0 0 1 0 0 0 1 0"/>
<feBlend mode="normal" in2="effect1_dropShadow" result="effect2_dropShadow"/>
<feColorMatrix in="SourceAlpha" type="matrix" values="0 0 0 0 0 0 0 0 0 0 0 0 0 0 0 0 0 0 127 0"/>
<feOffset/>
<feGaussianBlur stdDeviation="127.603"/>
<feColorMatrix type="matrix" values="0 0 0 0 0.175 0 0 0 0 0.4555 0 0 0 0 1 0 0 0 1 0"/>
<feBlend mode="normal" in2="effect2_dropShadow" result="effect3_dropShadow"/>
<feBlend mode="normal" in="SourceGraphic" in2="effect3_dropShadow" result="shape"/>
</filter>
<filter id="filter4_d" x="236.585" y="338.426" width="75.2108" height="68.5367" filterUnits="userSpaceOnUse" color-interpolation-filters="sRGB">
<feFlood flood-opacity="0" result="BackgroundImageFix"/>
<feColorMatrix in="SourceAlpha" type="matrix" values="0 0 0 0 0 0 0 0 0 0 0 0 0 0 0 0 0 0 127 0"/>
<feOffset/>
<feGaussianBlur stdDeviation="6.34868"/>
<feColorMatrix type="matrix" values="0 0 0 0 1 0 0 0 0 1 0 0 0 0 1 0 0 0 0.5 0"/>
<feBlend mode="normal" in2="BackgroundImageFix" result="effect1_dropShadow"/>
<feBlend mode="normal" in="SourceGraphic" in2="effect1_dropShadow" result="shape"/>
</filter>
<filter id="filter5_d" x="277.395" y="361.988" width="75.2109" height="68.5367" filterUnits="userSpaceOnUse" color-interpolation-filters="sRGB">
<feFlood flood-opacity="0" result="BackgroundImageFix"/>
<feColorMatrix in="SourceAlpha" type="matrix" values="0 0 0 0 0 0 0 0 0 0 0 0 0 0 0 0 0 0 127 0"/>
<feOffset/>
<feGaussianBlur stdDeviation="6.34868"/>
<feColorMatrix type="matrix" values="0 0 0 0 1 0 0 0 0 1 0 0 0 0 1 0 0 0 0.5 0"/>
<feBlend mode="normal" in2="BackgroundImageFix" result="effect1_dropShadow"/>
<feBlend mode="normal" in="SourceGraphic" in2="effect1_dropShadow" result="shape"/>
</filter>
<filter id="filter6_d" x="318.205" y="338.426" width="75.2108" height="68.5368" filterUnits="userSpaceOnUse" color-interpolation-filters="sRGB">
<feFlood flood-opacity="0" result="BackgroundImageFix"/>
<feColorMatrix in="SourceAlpha" type="matrix" values="0 0 0 0 0 0 0 0 0 0 0 0 0 0 0 0 0 0 127 0"/>
<feOffset/>
<feGaussianBlur stdDeviation="6.34868"/>
<feColorMatrix type="matrix" values="0 0 0 0 1 0 0 0 0 1 0 0 0 0 1 0 0 0 0.5 0"/>
<feBlend mode="normal" in2="BackgroundImageFix" result="effect1_dropShadow"/>
<feBlend mode="normal" in="SourceGraphic" in2="effect1_dropShadow" result="shape"/>
</filter>
<filter id="filter7_d" x="318.204" y="291.303" width="75.2109" height="68.5368" filterUnits="userSpaceOnUse" color-interpolation-filters="sRGB">
<feFlood flood-opacity="0" result="BackgroundImageFix"/>
<feColorMatrix in="SourceAlpha" type="matrix" values="0 0 0 0 0 0 0 0 0 0 0 0 0 0 0 0 0 0 127 0"/>
<feOffset/>
<feGaussianBlur stdDeviation="6.34868"/>
<feColorMatrix type="matrix" values="0 0 0 0 1 0 0 0 0 1 0 0 0 0 1 0 0 0 0.5 0"/>
<feBlend mode="normal" in2="BackgroundImageFix" result="effect1_dropShadow"/>
<feBlend mode="normal" in="SourceGraphic" in2="effect1_dropShadow" result="shape"/>
</filter>
<filter id="filter8_d" x="277.395" y="267.741" width="75.2109" height="68.5368" filterUnits="userSpaceOnUse" color-interpolation-filters="sRGB">
<feFlood flood-opacity="0" result="BackgroundImageFix"/>
<feColorMatrix in="SourceAlpha" type="matrix" values="0 0 0 0 0 0 0 0 0 0 0 0 0 0 0 0 0 0 127 0"/>
<feOffset/>
<feGaussianBlur stdDeviation="6.34868"/>
<feColorMatrix type="matrix" values="0 0 0 0 1 0 0 0 0 1 0 0 0 0 1 0 0 0 0.5 0"/>
<feBlend mode="normal" in2="BackgroundImageFix" result="effect1_dropShadow"/>
<feBlend mode="normal" in="SourceGraphic" in2="effect1_dropShadow" result="shape"/>
</filter>
<filter id="filter9_d" x="230.357" y="280.517" width="87.6649" height="90.1078" filterUnits="userSpaceOnUse" color-interpolation-filters="sRGB">
<feFlood flood-opacity="0" result="BackgroundImageFix"/>
<feColorMatrix in="SourceAlpha" type="matrix" values="0 0 0 0 0 0 0 0 0 0 0 0 0 0 0 0 0 0 127 0"/>
<feOffset/>
<feGaussianBlur stdDeviation="6.34868"/>
<feColorMatrix type="matrix" values="0 0 0 0 1 0 0 0 0 1 0 0 0 0 1 0 0 0 0.5 0"/>
<feBlend mode="normal" in2="BackgroundImageFix" result="effect1_dropShadow"/>
<feBlend mode="normal" in="SourceGraphic" in2="effect1_dropShadow" result="shape"/>
</filter>
<filter id="filter10_d" x="277.394" y="314.865" width="75.2109" height="68.5368" filterUnits="userSpaceOnUse" color-interpolation-filters="sRGB">
<feFlood flood-opacity="0" result="BackgroundImageFix"/>
<feColorMatrix in="SourceAlpha" type="matrix" values="0 0 0 0 0 0 0 0 0 0 0 0 0 0 0 0 0 0 127 0"/>
<feOffset/>
<feGaussianBlur stdDeviation="6.34868"/>
<feColorMatrix type="matrix" values="0 0 0 0 1 0 0 0 0 1 0 0 0 0 1 0 0 0 0.5 0"/>
<feBlend mode="normal" in2="BackgroundImageFix" result="effect1_dropShadow"/>
<feBlend mode="normal" in="SourceGraphic" in2="effect1_dropShadow" result="shape"/>
</filter>
<radialGradient id="paint0_radial" cx="0" cy="0" r="1" gradientUnits="userSpaceOnUse" gradientTransform="translate(313.746 313.746) rotate(90) scale(313.746)">
<stop offset="0.197917" stop-color="#4B7DFE" stop-opacity="0.26"/>
<stop offset="1" stop-color="#4251FA" stop-opacity="0"/>
</radialGradient>
<radialGradient id="paint1_angular" cx="0" cy="0" r="1" gradientUnits="userSpaceOnUse" gradientTransform="translate(315 381.608) rotate(90) scale(177.79)">
<stop stop-color="#CE5990"/>
<stop offset="0.203125" stop-color="#39C353"/>
<stop offset="0.3125" stop-color="#DD8AEA"/>
<stop offset="0.5" stop-color="#A0BCFE"/>
<stop offset="0.682292" stop-color="#848484"/>
<stop offset="0.802083" stop-color="#00BB00"/>
</radialGradient>
<linearGradient id="paint2_linear" x1="221.427" y1="255.559" x2="408.573" y2="442.706" gradientUnits="userSpaceOnUse">
<stop offset="0.151042" stop-color="#B0CBFF" stop-opacity="0.86"/>
<stop offset="0.6875" stop-color="#6A9DFF"/>
</linearGradient>
<linearGradient id="paint3_linear" x1="524.164" y1="442.706" x2="524.164" y2="468.026" gradientUnits="userSpaceOnUse">
<stop stop-color="#5FCF5F"/>
<stop offset="1" stop-color="#42CD42"/>
</linearGradient>
<linearGradient id="paint4_linear" x1="524.164" y1="468.026" x2="524.164" y2="493.346" gradientUnits="userSpaceOnUse">
<stop stop-color="#36B836"/>
<stop offset="1" stop-color="#177617"/>
</linearGradient>
<linearGradient id="paint5_linear" x1="524.164" y1="442.706" x2="524.164" y2="468.026" gradientUnits="userSpaceOnUse">
<stop stop-color="#74D474"/>
<stop offset="1" stop-color="#68F668"/>
</linearGradient>
<linearGradient id="paint6_linear" x1="524.164" y1="468.026" x2="524.164" y2="493.346" gradientUnits="userSpaceOnUse">
<stop stop-color="#40CC40"/>
<stop offset="1" stop-color="#179417"/>
</linearGradient>
<linearGradient id="paint7_linear" x1="425.086" y1="170.242" x2="425.086" y2="195.562" gradientUnits="userSpaceOnUse">
<stop stop-color="#83A3F1"/>
<stop offset="1" stop-color="#6D95F8"/>
</linearGradient>
<linearGradient id="paint8_linear" x1="425.086" y1="195.562" x2="425.086" y2="220.882" gradientUnits="userSpaceOnUse">
<stop stop-color="#5E83E0"/>
<stop offset="1" stop-color="#355094"/>
</linearGradient>
<linearGradient id="paint9_linear" x1="425.086" y1="170.242" x2="425.086" y2="195.562" gradientUnits="userSpaceOnUse">
<stop stop-color="#92ADF0"/>
<stop offset="1" stop-color="#A1BDFF"/>
</linearGradient>
<linearGradient id="paint10_linear" x1="425.086" y1="195.562" x2="425.086" y2="220.882" gradientUnits="userSpaceOnUse">
<stop stop-color="#6B94F7"/>
<stop offset="1" stop-color="#3D61B9"/>
</linearGradient>
<linearGradient id="paint11_linear" x1="204.914" y1="170.242" x2="204.914" y2="195.562" gradientUnits="userSpaceOnUse">
<stop offset="0.333333" stop-color="#DA78E7"/>
<stop offset="1" stop-color="#8F82FF"/>
</linearGradient>
<linearGradient id="paint12_linear" x1="204.914" y1="195.562" x2="204.914" y2="220.882" gradientUnits="userSpaceOnUse">
<stop stop-color="#7D70F3"/>
<stop offset="1" stop-color="#4F45A6"/>
</linearGradient>
<linearGradient id="paint13_linear" x1="204.914" y1="170.242" x2="204.914" y2="195.562" gradientUnits="userSpaceOnUse">
<stop offset="0.302083" stop-color="#DD89E9"/>
<stop offset="1" stop-color="#B8B0FF"/>
</linearGradient>
<linearGradient id="paint14_linear" x1="204.914" y1="195.562" x2="204.914" y2="220.882" gradientUnits="userSpaceOnUse">
<stop stop-color="#8E81FF"/>
<stop offset="1" stop-color="#5D50CD"/>
</linearGradient>
<radialGradient id="paint15_angular" cx="0" cy="0" r="1" gradientUnits="userSpaceOnUse" gradientTransform="translate(315.55 518.117) rotate(90) scale(12.6599 13.2104)">
<stop offset="0.140625" stop-color="#8787FF"/>
<stop offset="0.5" stop-color="#7ABDD6"/>
<stop offset="0.859375" stop-color="#40CA54"/>
</radialGradient>
<radialGradient id="paint16_angular" cx="0" cy="0" r="1" gradientUnits="userSpaceOnUse" gradientTransform="translate(315.55 543.437) rotate(90) scale(12.6599 13.2104)">
<stop offset="0.359375" stop-color="#D553A0"/>
<stop offset="0.630208" stop-color="#988618"/>
<stop offset="1" stop-color="#B5393F"/>
</radialGradient>
<linearGradient id="paint17_linear" x1="315.551" y1="505.457" x2="315.551" y2="530.777" gradientUnits="userSpaceOnUse">
<stop offset="0.302083" stop-color="#7ABDD7"/>
<stop offset="1" stop-color="#B3B3FF"/>
</linearGradient>
<linearGradient id="paint18_linear" x1="315.551" y1="530.777" x2="315.551" y2="556.097" gradientUnits="userSpaceOnUse">
<stop stop-color="#8686FF"/>
<stop offset="0.6875" stop-color="#B73A41"/>
</linearGradient>
<linearGradient id="paint19_linear" x1="105.836" y1="442.706" x2="105.836" y2="468.026" gradientUnits="userSpaceOnUse">
<stop stop-color="#5FCD74"/>
<stop offset="1" stop-color="#83E296"/>
</linearGradient>
<linearGradient id="paint20_linear" x1="105.836" y1="468.026" x2="105.836" y2="493.346" gradientUnits="userSpaceOnUse">
<stop stop-color="#33B54C"/>
<stop offset="1" stop-color="#147126"/>
</linearGradient>
<linearGradient id="paint21_linear" x1="105.836" y1="442.706" x2="105.836" y2="468.026" gradientUnits="userSpaceOnUse">
<stop stop-color="#73CF85"/>
<stop offset="1" stop-color="#C4F8CE"/>
</linearGradient>
<linearGradient id="paint22_linear" x1="105.836" y1="468.026" x2="105.836" y2="493.346" gradientUnits="userSpaceOnUse">
<stop stop-color="#3DC958"/>
<stop offset="1" stop-color="#15922E"/>
</linearGradient>
<linearGradient id="paint23_linear" x1="563.795" y1="275.375" x2="563.795" y2="300.695" gradientUnits="userSpaceOnUse">
<stop stop-color="#A2A2A2"/>
<stop offset="1" stop-color="#BCBCBC"/>
</linearGradient>
<linearGradient id="paint24_linear" x1="563.795" y1="300.695" x2="563.795" y2="326.015" gradientUnits="userSpaceOnUse">
<stop stop-color="#929292"/>
<stop offset="1" stop-color="#494949"/>
</linearGradient>
<linearGradient id="paint25_linear" x1="563.795" y1="275.375" x2="563.795" y2="300.695" gradientUnits="userSpaceOnUse">
<stop stop-color="#ACACAC"/>
<stop offset="1" stop-color="#E4E4E4"/>
</linearGradient>
<linearGradient id="paint26_linear" x1="563.795" y1="300.695" x2="563.795" y2="326.015" gradientUnits="userSpaceOnUse">
<stop stop-color="#A8A8A8"/>
<stop offset="1" stop-color="#626262"/>
</linearGradient>
<linearGradient id="paint27_linear" x1="66.2045" y1="275.375" x2="66.2045" y2="300.695" gradientUnits="userSpaceOnUse">
<stop stop-color="#FF8072"/>
<stop offset="1" stop-color="#FFA096"/>
</linearGradient>
<linearGradient id="paint28_linear" x1="66.2045" y1="300.695" x2="66.2045" y2="326.015" gradientUnits="userSpaceOnUse">
<stop stop-color="#FF6453"/>
<stop offset="1" stop-color="#D11E0B"/>
</linearGradient>
<linearGradient id="paint29_linear" x1="66.2046" y1="275.375" x2="66.2046" y2="300.695" gradientUnits="userSpaceOnUse">
<stop stop-color="#FF9287"/>
<stop offset="1" stop-color="#FFD9D4"/>
</linearGradient>
<linearGradient id="paint30_linear" x1="66.2046" y1="300.695" x2="66.2046" y2="326.015" gradientUnits="userSpaceOnUse">
<stop stop-color="#FF8376"/>
<stop offset="1" stop-color="#E83522"/>
</linearGradient>
</defs>
</svg>
