<svg width="766" height="698" viewBox="0 0 766 698" fill="none" xmlns="http://www.w3.org/2000/svg">
<circle r="313.746" transform="matrix(-1 0 0 1 383 366.746)" fill="url(#paint0_radial)"/>
<g opacity="0.3">
<g filter="url(#filter0_i)">
<ellipse cx="383" cy="437.204" rx="382" ry="248.795" fill="white" fill-opacity="0.01"/>
</g>
<ellipse cx="383" cy="437.204" rx="382" ry="248.795" stroke="#636CBD"/>
</g>
<g opacity="0.3">
<g filter="url(#filter1_i)">
<ellipse cx="383" cy="406.928" rx="296.683" ry="193.202" fill="white" fill-opacity="0.01"/>
</g>
<ellipse cx="383" cy="406.928" rx="296.683" ry="193.202" stroke="#636CBD"/>
</g>
<path d="M628.288 381.334C628.288 425.054 601.052 464.809 556.656 493.696C512.272 522.575 450.879 540.48 383 540.48C315.12 540.48 253.728 522.575 209.344 493.696C164.948 464.809 137.712 425.054 137.712 381.334C137.712 337.614 164.948 297.86 209.344 268.973C253.728 240.094 315.12 222.189 383 222.189C450.879 222.189 512.272 240.094 556.656 268.973C601.052 297.86 628.288 337.614 628.288 381.334Z" stroke="url(#paint1_angular)" stroke-width="2.61151"/>
<g opacity="0.3">
<g filter="url(#filter2_i)">
<ellipse cx="383" cy="374.729" rx="209.164" ry="136.232" fill="white" fill-opacity="0.01"/>
</g>
<ellipse cx="383" cy="374.729" rx="209.164" ry="136.232" stroke="#636CBD"/>
</g>
<g filter="url(#filter3_ddd)">
<circle cx="383" cy="349.133" r="93.5735" fill="url(#paint2_linear)"/>
<circle cx="383" cy="349.133" r="92.0735" stroke="#B3C7FF" stroke-opacity="0.38" stroke-width="3"/>
</g>
<g opacity="0.4" filter="url(#filter4_d)">
<path fill-rule="evenodd" clip-rule="evenodd" d="M353.486 392.26L364.783 372.694L353.486 353.128L330.894 353.128L319.597 372.694L330.894 392.26L353.486 392.26ZM329.736 394.265L354.644 394.265L367.098 372.694L354.644 351.123L329.736 351.123L317.282 372.694L329.736 394.265Z" fill="white"/>
</g>
<g opacity="0.4" filter="url(#filter5_d)">
<path fill-rule="evenodd" clip-rule="evenodd" d="M405.593 396.255L394.297 376.689L371.704 376.689L360.407 396.255L371.704 415.82L394.296 415.82L405.593 396.255ZM395.454 417.826L407.908 396.255L395.454 374.684L370.546 374.684L358.092 396.255L370.546 417.826L395.454 417.826Z" fill="white"/>
</g>
<g opacity="0.7" filter="url(#filter6_d)">
<path fill-rule="evenodd" clip-rule="evenodd" d="M412.514 392.26L435.106 392.26L446.403 372.694L435.106 353.128L412.514 353.128L401.217 372.694L412.514 392.26ZM398.902 372.694L411.356 394.265L436.264 394.265L448.718 372.694L436.264 351.123L411.356 351.123L398.902 372.694Z" fill="white"/>
</g>
<g filter="url(#filter7_d)">
<path fill-rule="evenodd" clip-rule="evenodd" d="M435.106 345.136L446.402 325.57L435.106 306.004L412.513 306.004L401.217 325.57L412.513 345.136L435.106 345.136ZM411.356 347.141L436.264 347.141L448.718 325.57L436.264 303.999L411.356 303.999L398.902 325.57L411.356 347.141Z" fill="white"/>
</g>
<g opacity="0.8" filter="url(#filter8_d)">
<path fill-rule="evenodd" clip-rule="evenodd" d="M405.593 302.009L394.297 282.443L371.704 282.443L360.407 302.009L371.704 321.574L394.296 321.574L405.593 302.009ZM395.454 323.58L407.908 302.009L395.454 280.437L370.546 280.437L358.092 302.009L370.546 323.58L395.454 323.58Z" fill="white"/>
</g>
<g opacity="0.4" filter="url(#filter9_d)">
<path fill-rule="evenodd" clip-rule="evenodd" d="M330.893 345.137L353.486 345.137L364.782 325.571L353.486 306.005L330.893 306.005L319.597 325.571L330.893 345.137ZM317.282 325.571L329.736 347.142L354.644 347.142L367.098 325.571L354.644 304L329.736 304L317.282 325.571Z" fill="white"/>
</g>
<g filter="url(#filter10_d)">
<path fill-rule="evenodd" clip-rule="evenodd" d="M405.592 349.133L394.296 329.567L371.703 329.567L360.407 349.133L371.703 368.698L394.296 368.698L405.592 349.133ZM395.453 370.704L407.907 349.133L395.453 327.562L370.545 327.562L358.091 349.133L370.545 370.704L395.453 370.704Z" fill="white"/>
</g>
<path d="M592.164 442.706L605.375 468.026H578.954L592.164 442.706Z" fill="url(#paint3_linear)"/>
<path d="M592.164 493.346L605.375 468.026H578.954L592.164 493.346Z" fill="url(#paint4_linear)"/>
<path d="M592.165 442.706L598.745 468.026H585.584L592.165 442.706Z" fill="url(#paint5_linear)"/>
<path d="M592.165 493.346L598.745 468.026H585.584L592.165 493.346Z" fill="url(#paint6_linear)"/>
<path d="M493.087 170.242L506.297 195.562H479.876L493.087 170.242Z" fill="url(#paint7_linear)"/>
<path d="M493.087 220.882L506.297 195.562H479.876L493.087 220.882Z" fill="url(#paint8_linear)"/>
<path d="M493.087 170.242L499.667 195.562H486.506L493.087 170.242Z" fill="url(#paint9_linear)"/>
<path d="M493.087 220.882L499.667 195.562H486.506L493.087 220.882Z" fill="url(#paint10_linear)"/>
<path d="M272.914 170.242L286.124 195.562H259.703L272.914 170.242Z" fill="url(#paint11_linear)"/>
<path d="M272.914 220.882L286.124 195.562H259.703L272.914 220.882Z" fill="url(#paint12_linear)"/>
<path d="M272.914 170.242L279.495 195.562H266.333L272.914 170.242Z" fill="url(#paint13_linear)"/>
<path d="M272.914 220.882L279.495 195.562H266.333L272.914 220.882Z" fill="url(#paint14_linear)"/>
<path d="M383.55 505.457L396.761 530.777H370.34L383.55 505.457Z" fill="url(#paint15_radial)"/>
<path d="M383.55 556.097L396.761 530.777H370.34L383.55 556.097Z" fill="url(#paint16_radial)"/>
<path d="M383.551 505.457L390.131 530.777H376.97L383.551 505.457Z" fill="url(#paint17_linear)"/>
<path d="M383.551 556.097L390.131 530.777H376.97L383.551 556.097Z" fill="url(#paint18_linear)"/>
<path d="M173.836 442.706L187.046 468.026H160.625L173.836 442.706Z" fill="url(#paint19_linear)"/>
<path d="M173.836 493.346L187.046 468.026H160.625L173.836 493.346Z" fill="url(#paint20_linear)"/>
<path d="M173.836 442.706L180.417 468.026H167.255L173.836 442.706Z" fill="url(#paint21_linear)"/>
<path d="M173.836 493.346L180.417 468.026H167.255L173.836 493.346Z" fill="url(#paint22_linear)"/>
<path d="M631.795 275.375L645.005 300.695H618.584L631.795 275.375Z" fill="url(#paint23_linear)"/>
<path d="M631.795 326.015L645.005 300.695H618.584L631.795 326.015Z" fill="url(#paint24_linear)"/>
<path d="M631.795 275.375L638.376 300.695H625.214L631.795 275.375Z" fill="url(#paint25_linear)"/>
<path d="M631.795 326.015L638.376 300.695H625.214L631.795 326.015Z" fill="url(#paint26_linear)"/>
<path d="M134.205 275.375L147.415 300.695H120.994L134.205 275.375Z" fill="url(#paint27_linear)"/>
<path d="M134.205 326.015L147.415 300.695H120.994L134.205 326.015Z" fill="url(#paint28_linear)"/>
<path d="M134.205 275.375L140.785 300.695H127.624L134.205 275.375Z" fill="url(#paint29_linear)"/>
<path d="M134.205 326.015L140.785 300.695H127.624L134.205 326.015Z" fill="url(#paint30_linear)"/>
<defs>
<filter id="filter0_i" x="0.5" y="187.908" width="765" height="498.591" filterUnits="userSpaceOnUse" color-interpolation-filters="sRGB">
<feFlood flood-opacity="0" result="BackgroundImageFix"/>
<feBlend mode="normal" in="SourceGraphic" in2="BackgroundImageFix" result="shape"/>
<feColorMatrix in="SourceAlpha" type="matrix" values="0 0 0 0 0 0 0 0 0 0 0 0 0 0 0 0 0 0 127 0" result="hardAlpha"/>
<feOffset dx="3" dy="3"/>
<feComposite in2="hardAlpha" operator="arithmetic" k2="-1" k3="1"/>
<feColorMatrix type="matrix" values="0 0 0 0 0.388235 0 0 0 0 0.423529 0 0 0 0 0.741176 0 0 0 1 0"/>
<feBlend mode="normal" in2="shape" result="effect1_innerShadow"/>
</filter>
<filter id="filter1_i" x="85.8171" y="213.226" width="594.366" height="387.403" filterUnits="userSpaceOnUse" color-interpolation-filters="sRGB">
<feFlood flood-opacity="0" result="BackgroundImageFix"/>
<feBlend mode="normal" in="SourceGraphic" in2="BackgroundImageFix" result="shape"/>
<feColorMatrix in="SourceAlpha" type="matrix" values="0 0 0 0 0 0 0 0 0 0 0 0 0 0 0 0 0 0 127 0" result="hardAlpha"/>
<feOffset dx="-5" dy="-2"/>
<feComposite in2="hardAlpha" operator="arithmetic" k2="-1" k3="1"/>
<feColorMatrix type="matrix" values="0 0 0 0 0.388235 0 0 0 0 0.423529 0 0 0 0 0.741176 0 0 0 1 0"/>
<feBlend mode="normal" in2="shape" result="effect1_innerShadow"/>
</filter>
<filter id="filter2_i" x="173.336" y="237.997" width="419.329" height="273.464" filterUnits="userSpaceOnUse" color-interpolation-filters="sRGB">
<feFlood flood-opacity="0" result="BackgroundImageFix"/>
<feBlend mode="normal" in="SourceGraphic" in2="BackgroundImageFix" result="shape"/>
<feColorMatrix in="SourceAlpha" type="matrix" values="0 0 0 0 0 0 0 0 0 0 0 0 0 0 0 0 0 0 127 0" result="hardAlpha"/>
<feOffset dx="5" dy="-2"/>
<feComposite in2="hardAlpha" operator="arithmetic" k2="-1" k3="1"/>
<feColorMatrix type="matrix" values="0 0 0 0 0.388235 0 0 0 0 0.423529 0 0 0 0 0.741176 0 0 0 1 0"/>
<feBlend mode="normal" in2="shape" result="effect1_innerShadow"/>
</filter>
<filter id="filter3_ddd" x="34.2199" y="0.352493" width="697.56" height="697.56" filterUnits="userSpaceOnUse" color-interpolation-filters="sRGB">
<feFlood flood-opacity="0" result="BackgroundImageFix"/>
<feColorMatrix in="SourceAlpha" type="matrix" values="0 0 0 0 0 0 0 0 0 0 0 0 0 0 0 0 0 0 127 0"/>
<feOffset dy="79.7521"/>
<feGaussianBlur stdDeviation="71.7769"/>
<feColorMatrix type="matrix" values="0 0 0 0 0.15 0 0 0 0 0.235 0 0 0 0 1 0 0 0 0.7 0"/>
<feBlend mode="normal" in2="BackgroundImageFix" result="effect1_dropShadow"/>
<feColorMatrix in="SourceAlpha" type="matrix" values="0 0 0 0 0 0 0 0 0 0 0 0 0 0 0 0 0 0 127 0"/>
<feOffset/>
<feGaussianBlur stdDeviation="39.876"/>
<feColorMatrix type="matrix" values="0 0 0 0 0.14902 0 0 0 0 0.235294 0 0 0 0 1 0 0 0 1 0"/>
<feBlend mode="normal" in2="effect1_dropShadow" result="effect2_dropShadow"/>
<feColorMatrix in="SourceAlpha" type="matrix" values="0 0 0 0 0 0 0 0 0 0 0 0 0 0 0 0 0 0 127 0"/>
<feOffset/>
<feGaussianBlur stdDeviation="127.603"/>
<feColorMatrix type="matrix" values="0 0 0 0 0.175 0 0 0 0 0.4555 0 0 0 0 1 0 0 0 1 0"/>
<feBlend mode="normal" in2="effect2_dropShadow" result="effect3_dropShadow"/>
<feBlend mode="normal" in="SourceGraphic" in2="effect3_dropShadow" result="shape"/>
</filter>
<filter id="filter4_d" x="304.585" y="338.426" width="75.2108" height="68.5367" filterUnits="userSpaceOnUse" color-interpolation-filters="sRGB">
<feFlood flood-opacity="0" result="BackgroundImageFix"/>
<feColorMatrix in="SourceAlpha" type="matrix" values="0 0 0 0 0 0 0 0 0 0 0 0 0 0 0 0 0 0 127 0"/>
<feOffset/>
<feGaussianBlur stdDeviation="6.34868"/>
<feColorMatrix type="matrix" values="0 0 0 0 1 0 0 0 0 1 0 0 0 0 1 0 0 0 0.5 0"/>
<feBlend mode="normal" in2="BackgroundImageFix" result="effect1_dropShadow"/>
<feBlend mode="normal" in="SourceGraphic" in2="effect1_dropShadow" result="shape"/>
</filter>
<filter id="filter5_d" x="345.395" y="361.986" width="75.2109" height="68.5367" filterUnits="userSpaceOnUse" color-interpolation-filters="sRGB">
<feFlood flood-opacity="0" result="BackgroundImageFix"/>
<feColorMatrix in="SourceAlpha" type="matrix" values="0 0 0 0 0 0 0 0 0 0 0 0 0 0 0 0 0 0 127 0"/>
<feOffset/>
<feGaussianBlur stdDeviation="6.34868"/>
<feColorMatrix type="matrix" values="0 0 0 0 1 0 0 0 0 1 0 0 0 0 1 0 0 0 0.5 0"/>
<feBlend mode="normal" in2="BackgroundImageFix" result="effect1_dropShadow"/>
<feBlend mode="normal" in="SourceGraphic" in2="effect1_dropShadow" result="shape"/>
</filter>
<filter id="filter6_d" x="386.205" y="338.425" width="75.2108" height="68.5368" filterUnits="userSpaceOnUse" color-interpolation-filters="sRGB">
<feFlood flood-opacity="0" result="BackgroundImageFix"/>
<feColorMatrix in="SourceAlpha" type="matrix" values="0 0 0 0 0 0 0 0 0 0 0 0 0 0 0 0 0 0 127 0"/>
<feOffset/>
<feGaussianBlur stdDeviation="6.34868"/>
<feColorMatrix type="matrix" values="0 0 0 0 1 0 0 0 0 1 0 0 0 0 1 0 0 0 0.5 0"/>
<feBlend mode="normal" in2="BackgroundImageFix" result="effect1_dropShadow"/>
<feBlend mode="normal" in="SourceGraphic" in2="effect1_dropShadow" result="shape"/>
</filter>
<filter id="filter7_d" x="386.204" y="291.302" width="75.2109" height="68.5368" filterUnits="userSpaceOnUse" color-interpolation-filters="sRGB">
<feFlood flood-opacity="0" result="BackgroundImageFix"/>
<feColorMatrix in="SourceAlpha" type="matrix" values="0 0 0 0 0 0 0 0 0 0 0 0 0 0 0 0 0 0 127 0"/>
<feOffset/>
<feGaussianBlur stdDeviation="6.34868"/>
<feColorMatrix type="matrix" values="0 0 0 0 1 0 0 0 0 1 0 0 0 0 1 0 0 0 0.5 0"/>
<feBlend mode="normal" in2="BackgroundImageFix" result="effect1_dropShadow"/>
<feBlend mode="normal" in="SourceGraphic" in2="effect1_dropShadow" result="shape"/>
</filter>
<filter id="filter8_d" x="345.395" y="267.74" width="75.2109" height="68.5368" filterUnits="userSpaceOnUse" color-interpolation-filters="sRGB">
<feFlood flood-opacity="0" result="BackgroundImageFix"/>
<feColorMatrix in="SourceAlpha" type="matrix" values="0 0 0 0 0 0 0 0 0 0 0 0 0 0 0 0 0 0 127 0"/>
<feOffset/>
<feGaussianBlur stdDeviation="6.34868"/>
<feColorMatrix type="matrix" values="0 0 0 0 1 0 0 0 0 1 0 0 0 0 1 0 0 0 0.5 0"/>
<feBlend mode="normal" in2="BackgroundImageFix" result="effect1_dropShadow"/>
<feBlend mode="normal" in="SourceGraphic" in2="effect1_dropShadow" result="shape"/>
</filter>
<filter id="filter9_d" x="304.584" y="291.302" width="75.2108" height="68.5367" filterUnits="userSpaceOnUse" color-interpolation-filters="sRGB">
<feFlood flood-opacity="0" result="BackgroundImageFix"/>
<feColorMatrix in="SourceAlpha" type="matrix" values="0 0 0 0 0 0 0 0 0 0 0 0 0 0 0 0 0 0 127 0"/>
<feOffset/>
<feGaussianBlur stdDeviation="6.34868"/>
<feColorMatrix type="matrix" values="0 0 0 0 1 0 0 0 0 1 0 0 0 0 1 0 0 0 0.5 0"/>
<feBlend mode="normal" in2="BackgroundImageFix" result="effect1_dropShadow"/>
<feBlend mode="normal" in="SourceGraphic" in2="effect1_dropShadow" result="shape"/>
</filter>
<filter id="filter10_d" x="345.394" y="314.864" width="75.2109" height="68.5367" filterUnits="userSpaceOnUse" color-interpolation-filters="sRGB">
<feFlood flood-opacity="0" result="BackgroundImageFix"/>
<feColorMatrix in="SourceAlpha" type="matrix" values="0 0 0 0 0 0 0 0 0 0 0 0 0 0 0 0 0 0 127 0"/>
<feOffset/>
<feGaussianBlur stdDeviation="6.34868"/>
<feColorMatrix type="matrix" values="0 0 0 0 1 0 0 0 0 1 0 0 0 0 1 0 0 0 0.5 0"/>
<feBlend mode="normal" in2="BackgroundImageFix" result="effect1_dropShadow"/>
<feBlend mode="normal" in="SourceGraphic" in2="effect1_dropShadow" result="shape"/>
</filter>
<radialGradient id="paint0_radial" cx="0" cy="0" r="1" gradientUnits="userSpaceOnUse" gradientTransform="translate(313.746 313.746) rotate(90) scale(313.746)">
<stop offset="0.197917" stop-color="#4B7DFE" stop-opacity="0.26"/>
<stop offset="1" stop-color="#4251FA" stop-opacity="0"/>
</radialGradient>
<radialGradient id="paint1_angular" cx="0" cy="0" r="1" gradientUnits="userSpaceOnUse" gradientTransform="translate(383 381.608) rotate(90) scale(177.79)">
<stop stop-color="#CE5990"/>
<stop offset="0.203125" stop-color="#39C353"/>
<stop offset="0.3125" stop-color="#DD8AEA"/>
<stop offset="0.5" stop-color="#A0BCFE"/>
<stop offset="0.682292" stop-color="#848484"/>
<stop offset="0.802083" stop-color="#00BB00"/>
</radialGradient>
<linearGradient id="paint2_linear" x1="289.427" y1="255.559" x2="476.573" y2="442.706" gradientUnits="userSpaceOnUse">
<stop offset="0.151042" stop-color="#B0CBFF" stop-opacity="0.86"/>
<stop offset="0.6875" stop-color="#6A9DFF"/>
</linearGradient>
<linearGradient id="paint3_linear" x1="592.164" y1="442.706" x2="592.164" y2="468.026" gradientUnits="userSpaceOnUse">
<stop stop-color="#5FCF5F"/>
<stop offset="1" stop-color="#42CD42"/>
</linearGradient>
<linearGradient id="paint4_linear" x1="592.164" y1="468.026" x2="592.164" y2="493.346" gradientUnits="userSpaceOnUse">
<stop stop-color="#36B836"/>
<stop offset="1" stop-color="#177617"/>
</linearGradient>
<linearGradient id="paint5_linear" x1="592.165" y1="442.706" x2="592.165" y2="468.026" gradientUnits="userSpaceOnUse">
<stop stop-color="#74D474"/>
<stop offset="1" stop-color="#68F668"/>
</linearGradient>
<linearGradient id="paint6_linear" x1="592.165" y1="468.026" x2="592.165" y2="493.346" gradientUnits="userSpaceOnUse">
<stop stop-color="#40CC40"/>
<stop offset="1" stop-color="#179417"/>
</linearGradient>
<linearGradient id="paint7_linear" x1="493.087" y1="170.242" x2="493.087" y2="195.562" gradientUnits="userSpaceOnUse">
<stop stop-color="#83A3F1"/>
<stop offset="1" stop-color="#6D95F8"/>
</linearGradient>
<linearGradient id="paint8_linear" x1="493.087" y1="195.562" x2="493.087" y2="220.882" gradientUnits="userSpaceOnUse">
<stop stop-color="#5E83E0"/>
<stop offset="1" stop-color="#355094"/>
</linearGradient>
<linearGradient id="paint9_linear" x1="493.087" y1="170.242" x2="493.087" y2="195.562" gradientUnits="userSpaceOnUse">
<stop stop-color="#92ADF0"/>
<stop offset="1" stop-color="#A1BDFF"/>
</linearGradient>
<linearGradient id="paint10_linear" x1="493.087" y1="195.562" x2="493.087" y2="220.882" gradientUnits="userSpaceOnUse">
<stop stop-color="#6B94F7"/>
<stop offset="1" stop-color="#3D61B9"/>
</linearGradient>
<linearGradient id="paint11_linear" x1="272.914" y1="170.242" x2="272.914" y2="195.562" gradientUnits="userSpaceOnUse">
<stop offset="0.333333" stop-color="#DA78E7"/>
<stop offset="1" stop-color="#8F82FF"/>
</linearGradient>
<linearGradient id="paint12_linear" x1="272.914" y1="195.562" x2="272.914" y2="220.882" gradientUnits="userSpaceOnUse">
<stop stop-color="#7D70F3"/>
<stop offset="1" stop-color="#4F45A6"/>
</linearGradient>
<linearGradient id="paint13_linear" x1="272.914" y1="170.242" x2="272.914" y2="195.562" gradientUnits="userSpaceOnUse">
<stop offset="0.302083" stop-color="#DD89E9"/>
<stop offset="1" stop-color="#B8B0FF"/>
</linearGradient>
<linearGradient id="paint14_linear" x1="272.914" y1="195.562" x2="272.914" y2="220.882" gradientUnits="userSpaceOnUse">
<stop stop-color="#8E81FF"/>
<stop offset="1" stop-color="#5D50CD"/>
</linearGradient>
<radialGradient id="paint15_radial" cx="0" cy="0" r="1" gradientUnits="userSpaceOnUse" gradientTransform="translate(375 526) rotate(-47.2906) scale(26.5377 27.6915)">
<stop offset="0.332096" stop-color="#8787FF"/>
<stop offset="0.554" stop-color="#40CA54"/>
<stop offset="0.697238" stop-color="#7ABDD6"/>
</radialGradient>
<radialGradient id="paint16_radial" cx="0" cy="0" r="1" gradientUnits="userSpaceOnUse" gradientTransform="translate(392.5 531) rotate(175.515) scale(25.5783 26.6904)">
<stop offset="0.119972" stop-color="#988618"/>
<stop offset="0.676137" stop-color="#D553A0"/>
<stop offset="0.861825" stop-color="#B5393F"/>
</radialGradient>
<linearGradient id="paint17_linear" x1="383.551" y1="505.457" x2="383.551" y2="530.777" gradientUnits="userSpaceOnUse">
<stop offset="0.302083" stop-color="#7ABDD7"/>
<stop offset="1" stop-color="#B3B3FF"/>
</linearGradient>
<linearGradient id="paint18_linear" x1="383.551" y1="530.777" x2="383.551" y2="556.097" gradientUnits="userSpaceOnUse">
<stop stop-color="#8686FF"/>
<stop offset="0.6875" stop-color="#B73A41"/>
</linearGradient>
<linearGradient id="paint19_linear" x1="173.836" y1="442.706" x2="173.836" y2="468.026" gradientUnits="userSpaceOnUse">
<stop stop-color="#5FCD74"/>
<stop offset="1" stop-color="#83E296"/>
</linearGradient>
<linearGradient id="paint20_linear" x1="173.836" y1="468.026" x2="173.836" y2="493.346" gradientUnits="userSpaceOnUse">
<stop stop-color="#33B54C"/>
<stop offset="1" stop-color="#147126"/>
</linearGradient>
<linearGradient id="paint21_linear" x1="173.836" y1="442.706" x2="173.836" y2="468.026" gradientUnits="userSpaceOnUse">
<stop stop-color="#73CF85"/>
<stop offset="1" stop-color="#C4F8CE"/>
</linearGradient>
<linearGradient id="paint22_linear" x1="173.836" y1="468.026" x2="173.836" y2="493.346" gradientUnits="userSpaceOnUse">
<stop stop-color="#3DC958"/>
<stop offset="1" stop-color="#15922E"/>
</linearGradient>
<linearGradient id="paint23_linear" x1="631.795" y1="275.375" x2="631.795" y2="300.695" gradientUnits="userSpaceOnUse">
<stop stop-color="#A2A2A2"/>
<stop offset="1" stop-color="#BCBCBC"/>
</linearGradient>
<linearGradient id="paint24_linear" x1="631.795" y1="300.695" x2="631.795" y2="326.015" gradientUnits="userSpaceOnUse">
<stop stop-color="#929292"/>
<stop offset="1" stop-color="#494949"/>
</linearGradient>
<linearGradient id="paint25_linear" x1="631.795" y1="275.375" x2="631.795" y2="300.695" gradientUnits="userSpaceOnUse">
<stop stop-color="#ACACAC"/>
<stop offset="1" stop-color="#E4E4E4"/>
</linearGradient>
<linearGradient id="paint26_linear" x1="631.795" y1="300.695" x2="631.795" y2="326.015" gradientUnits="userSpaceOnUse">
<stop stop-color="#A8A8A8"/>
<stop offset="1" stop-color="#626262"/>
</linearGradient>
<linearGradient id="paint27_linear" x1="134.205" y1="275.375" x2="134.205" y2="300.695" gradientUnits="userSpaceOnUse">
<stop stop-color="#FF8072"/>
<stop offset="1" stop-color="#FFA096"/>
</linearGradient>
<linearGradient id="paint28_linear" x1="134.205" y1="300.695" x2="134.205" y2="326.015" gradientUnits="userSpaceOnUse">
<stop stop-color="#FF6453"/>
<stop offset="1" stop-color="#D11E0B"/>
</linearGradient>
<linearGradient id="paint29_linear" x1="134.205" y1="275.375" x2="134.205" y2="300.695" gradientUnits="userSpaceOnUse">
<stop stop-color="#FF9287"/>
<stop offset="1" stop-color="#FFD9D4"/>
</linearGradient>
<linearGradient id="paint30_linear" x1="134.205" y1="300.695" x2="134.205" y2="326.015" gradientUnits="userSpaceOnUse">
<stop stop-color="#FF8376"/>
<stop offset="1" stop-color="#E83522"/>
</linearGradient>
</defs>
</svg>
