<svg width="1630" height="1303" viewBox="0 0 1630 1303" fill="none" xmlns="http://www.w3.org/2000/svg">
<circle r="571.5" transform="matrix(-1 0 0 1 810.499 571.5)" fill="url(#paint0_radial)"/>
<g opacity="0.2">
<g filter="url(#filter0_i)">
<ellipse rx="814" ry="578.221" transform="matrix(-1 0 0 1 815 724.137)" fill="white" fill-opacity="0.01"/>
</g>
<ellipse rx="814" ry="578.221" transform="matrix(-1 0 0 1 815 724.137)" stroke="#636CBD"/>
</g>
<g opacity="0.3">
<g filter="url(#filter1_i)">
<ellipse rx="635.294" ry="456.589" transform="matrix(-1 0 0 1 812.194 699.81)" fill="white" fill-opacity="0.01"/>
</g>
<ellipse rx="635.294" ry="456.589" transform="matrix(-1 0 0 1 812.194 699.81)" stroke="#636CBD"/>
</g>
<g opacity="0.5">
<g filter="url(#filter2_i)">
<ellipse rx="529.568" ry="380.802" transform="matrix(-1 0 0 1 807.516 670.806)" fill="white" fill-opacity="0.01"/>
</g>
<ellipse rx="529.568" ry="380.802" transform="matrix(-1 0 0 1 807.516 670.806)" stroke="#636CBD"/>
</g>
<ellipse rx="340.588" ry="242.325" transform="matrix(-1 0 0 1 822.503 607.05)" stroke="#3461FF" stroke-opacity="0.19" stroke-width="26.1977"/>
<ellipse rx="340.588" ry="242.325" transform="matrix(-1 0 0 1 822.503 607.05)" stroke="#9D95D7" stroke-width="2.5"/>
<ellipse rx="9.78665" ry="9.79051" transform="matrix(-0.68239 0.658601 0.926631 0.49269 1025.84 410.969)" fill="#40B3FF"/>
<ellipse rx="9.78811" ry="9.78904" transform="matrix(-0.754377 0.616934 0.868621 0.544298 1047.23 423.24)" fill="#8D0EC0"/>
<ellipse rx="9.78858" ry="9.78856" transform="matrix(-0.819972 0.57243 0.806491 0.591272 1066.71 436.373)" fill="#4251FA"/>
<ellipse rx="9.76377" ry="9.78269" transform="matrix(0.971092 0.393933 0.603332 -0.731955 525.857 485.544)" fill="#40B3FF"/>
<ellipse rx="9.77585" ry="9.77057" transform="matrix(0.920681 0.449863 0.682011 -0.696942 540.469 468.949)" fill="#8D0EC0"/>
<ellipse rx="9.7799" ry="9.76679" transform="matrix(0.866169 0.501681 0.75447 -0.658013 556.489 453.608)" fill="#4251FA"/>
<ellipse rx="16.2875" ry="12.8069" transform="matrix(-0.962404 0.255072 0.472816 0.889616 938.985 833.671)" fill="#40B3FF"/>
<ellipse rx="16.6044" ry="12.3595" transform="matrix(-0.988756 0.134293 0.27423 0.966195 885.287 844.627)" fill="#8D0EC0"/>
<ellipse rx="16.7013" ry="12.1861" transform="matrix(-0.999997 0.0145566 0.0534135 0.998848 829.944 849.12)" fill="#4251FA"/>
<ellipse rx="299.292" ry="212.943" transform="matrix(-1 0 0 1 822.503 592.436)" stroke="#2B6CFF" stroke-opacity="0.12" stroke-width="26.1977"/>
<ellipse rx="299.292" ry="212.943" transform="matrix(-1 0 0 1 822.503 592.436)" stroke="#9D95D7" stroke-width="2.5"/>
<ellipse rx="7.53956" ry="9.07552" transform="matrix(-0.140822 0.971733 1.02054 -0.00660134 834.775 378.408)" fill="#8D0EC0"/>
<ellipse rx="7.63295" ry="9.13576" transform="matrix(-0.238394 0.965771 1.01032 0.0584692 858.783 379.82)" fill="#4251FA"/>
<ellipse rx="7.63741" ry="9.16445" transform="matrix(-0.335064 0.950515 0.996301 0.120486 881.998 382.526)" fill="#40B3FF"/>
<ellipse rx="12.9245" ry="12.7719" transform="matrix(-0.410784 0.811918 1.05551 0.230994 1105.06 659.579)" fill="#8D0EC0"/>
<ellipse rx="12.8455" ry="12.8492" transform="matrix(-0.548331 0.774849 0.995232 0.329651 1090.74 684.872)" fill="#4251FA"/>
<ellipse rx="12.8111" ry="12.8857" transform="matrix(-0.680564 0.721826 0.918929 0.423939 1071.52 709.174)" fill="#40B3FF"/>
<ellipse rx="11.0447" ry="14.5188" transform="matrix(-0.393382 -0.920216 -0.976631 0.212846 537.836 654.95)" fill="#8D0EC0"/>
<ellipse rx="10.7648" ry="14.7255" transform="matrix(-0.23174 -0.973269 -0.992537 0.119859 528.964 628.408)" fill="#4251FA"/>
<ellipse rx="10.6337" ry="14.8178" transform="matrix(-0.0527088 -0.998714 -0.999623 0.0255708 524.875 600.641)" fill="#40B3FF"/>
<ellipse rx="32.6136" ry="35.37" transform="matrix(0.734301 -0.678824 -0.874828 -0.484434 627.844 782.903)" fill="#E8E8FF"/>
<path d="M584.624 758.97C604.313 740.768 639.185 738.549 662.098 751.237C685.011 763.925 690.754 788.635 671.065 806.836C651.376 825.038 616.504 827.257 593.591 814.569C570.677 801.881 564.935 777.171 584.624 758.97Z" stroke="#BBC6FF" stroke-opacity="0.25" stroke-width="28.069"/>
<ellipse rx="26.7801" ry="20.0025" transform="matrix(-0.983927 0.178574 0.334156 0.942518 1132.79 544.538)" fill="#E8E8FF"/>
<path d="M1142.74 572.58C1133.59 574.24 1124.01 573.17 1115.76 569.655C1107.5 566.139 1099.96 559.825 1096.85 551.061C1093.74 542.297 1096.17 534.173 1101.08 528.267C1106 522.363 1113.71 518.154 1122.85 516.495C1131.99 514.836 1141.58 515.905 1149.83 519.42C1158.08 522.936 1165.63 529.251 1168.74 538.014C1171.85 546.778 1169.42 554.903 1164.5 560.808C1159.59 566.712 1151.88 570.921 1142.74 572.58Z" stroke="#BBC6FF" stroke-opacity="0.25" stroke-width="19.5012"/>
<ellipse rx="17.5254" ry="21.9307" transform="matrix(0.518489 0.855084 0.955048 -0.29645 694.725 391.745)" fill="#E8E8FF"/>
<path d="M723.491 382.816C731.693 396.343 722.217 409.338 708.057 413.733C693.898 418.128 674.161 414.201 665.959 400.674C657.756 387.147 667.232 374.152 681.392 369.757C695.551 365.362 715.288 369.289 723.491 382.816Z" stroke="#BBC6FF" stroke-opacity="0.25" stroke-width="16.3783"/>
<g opacity="0.5">
<path d="M1375 892.999L815 569.999" stroke="#CCD1FF" stroke-width="2" stroke-linecap="round" stroke-dasharray="0.01 8"/>
<path d="M815 572L390 867" stroke="#CCD1FF" stroke-width="2" stroke-linecap="round" stroke-dasharray="0.01 8"/>
<path d="M815 570L830 209" stroke="#CCD1FF" stroke-width="2" stroke-linecap="round" stroke-dasharray="0.01 8"/>
</g>
<circle r="78.9999" transform="matrix(0.709851 -0.704351 -0.704351 -0.709851 830 208.999)" stroke="#FE9FFC" stroke-opacity="0.02" stroke-width="18"/>
<circle r="74" transform="matrix(0.709851 -0.704351 -0.704351 -0.709851 830 208.999)" stroke="url(#paint1_linear)" stroke-opacity="0.08" stroke-width="8"/>
<g filter="url(#filter3_d)">
<circle r="70" transform="matrix(0.709851 -0.704351 -0.704351 -0.709851 830 208.999)" fill="url(#paint2_radial)"/>
</g>
<g filter="url(#filter4_ddd)">
<circle cx="815" cy="570" r="160" fill="url(#paint3_linear)"/>
</g>
<circle r="105.603" transform="matrix(-0.990709 -0.135996 -0.135996 0.990709 390.131 864.87)" stroke="#3B2AB7" stroke-opacity="0.08" stroke-width="24"/>
<circle r="99.6027" transform="matrix(-0.990709 -0.135996 -0.135996 0.990709 390.131 864.87)" stroke="url(#paint4_linear)" stroke-opacity="0.1" stroke-width="12"/>
<g filter="url(#filter5_d)">
<circle r="93.6027" transform="matrix(-0.990709 -0.135996 -0.135996 0.990709 390.131 864.87)" fill="url(#paint5_radial)"/>
</g>
<circle r="133.1" transform="matrix(-0.00429961 0.999991 0.999991 0.00429962 1375.48 892.518)" stroke="url(#paint6_linear)" stroke-opacity="0.05" stroke-width="24.2"/>
<circle r="127.05" transform="matrix(-0.00429961 0.999991 0.999991 0.00429962 1375.48 892.519)" stroke="url(#paint7_linear)" stroke-opacity="0.14" stroke-width="12.1"/>
<g filter="url(#filter6_d)">
<circle r="121" transform="matrix(-0.00429961 0.999991 0.999991 0.00429962 1375.48 892.518)" fill="url(#paint8_radial)"/>
</g>
<path d="M1396.76 1061.28C1457.51 1061.54 1507.08 986.238 1507.48 893.087C1507.54 879.842 1506.6 866.949 1504.77 854.575" stroke="#40B3FF" stroke-width="2.59286" stroke-linecap="round"/>
<path d="M1396.76 1061.28C1457.51 1061.54 1507.08 986.238 1507.48 893.087C1507.54 879.842 1506.6 866.949 1504.77 854.575" stroke="url(#paint9_linear)" stroke-width="2.59286" stroke-linecap="round"/>
<circle r="5.5" transform="matrix(-0.00429961 0.999991 0.999991 0.00429962 1394.92 1061.27)" fill="#F0F0F9"/>
<path d="M1547.64 933.593C1547.81 893.093 1469.1 859.921 1371.83 859.503C1358 859.444 1344.53 860.05 1331.62 861.25" stroke="#40B3FF" stroke-width="2.59286" stroke-linecap="round"/>
<path d="M1547.64 933.593C1547.81 893.093 1469.1 859.921 1371.83 859.503C1358 859.444 1344.53 860.05 1331.62 861.25" stroke="url(#paint10_linear)" stroke-width="2.59286" stroke-linecap="round"/>
<circle r="5.5" transform="matrix(0.999991 0.00429957 0.00429957 -0.999991 1547.64 933.594)" fill="#F0F0F9"/>
<defs>
<filter id="filter0_i" x="0.5" y="145.416" width="1629" height="1157.44" filterUnits="userSpaceOnUse" color-interpolation-filters="sRGB">
<feFlood flood-opacity="0" result="BackgroundImageFix"/>
<feBlend mode="normal" in="SourceGraphic" in2="BackgroundImageFix" result="shape"/>
<feColorMatrix in="SourceAlpha" type="matrix" values="0 0 0 0 0 0 0 0 0 0 0 0 0 0 0 0 0 0 127 0" result="hardAlpha"/>
<feOffset dy="5.61379"/>
<feComposite in2="hardAlpha" operator="arithmetic" k2="-1" k3="1"/>
<feColorMatrix type="matrix" values="0 0 0 0 0.388235 0 0 0 0 0.423529 0 0 0 0 0.741176 0 0 0 1 0"/>
<feBlend mode="normal" in2="shape" result="effect1_innerShadow"/>
</filter>
<filter id="filter1_i" x="176.4" y="242.722" width="1271.59" height="914.177" filterUnits="userSpaceOnUse" color-interpolation-filters="sRGB">
<feFlood flood-opacity="0" result="BackgroundImageFix"/>
<feBlend mode="normal" in="SourceGraphic" in2="BackgroundImageFix" result="shape"/>
<feColorMatrix in="SourceAlpha" type="matrix" values="0 0 0 0 0 0 0 0 0 0 0 0 0 0 0 0 0 0 127 0" result="hardAlpha"/>
<feOffset dx="6"/>
<feComposite in2="hardAlpha" operator="arithmetic" k2="-1" k3="1"/>
<feColorMatrix type="matrix" values="0 0 0 0 0.388235 0 0 0 0 0.423529 0 0 0 0 0.741176 0 0 0 1 0"/>
<feBlend mode="normal" in2="shape" result="effect1_innerShadow"/>
</filter>
<filter id="filter2_i" x="277.448" y="289.503" width="1060.14" height="762.605" filterUnits="userSpaceOnUse" color-interpolation-filters="sRGB">
<feFlood flood-opacity="0" result="BackgroundImageFix"/>
<feBlend mode="normal" in="SourceGraphic" in2="BackgroundImageFix" result="shape"/>
<feColorMatrix in="SourceAlpha" type="matrix" values="0 0 0 0 0 0 0 0 0 0 0 0 0 0 0 0 0 0 127 0" result="hardAlpha"/>
<feOffset dy="-4"/>
<feComposite in2="hardAlpha" operator="arithmetic" k2="-1" k3="1"/>
<feColorMatrix type="matrix" values="0 0 0 0 0.388235 0 0 0 0 0.423529 0 0 0 0 0.741176 0 0 0 1 0"/>
<feBlend mode="normal" in2="shape" result="effect1_innerShadow"/>
</filter>
<filter id="filter3_d" x="716" y="130.999" width="228" height="228" filterUnits="userSpaceOnUse" color-interpolation-filters="sRGB">
<feFlood flood-opacity="0" result="BackgroundImageFix"/>
<feColorMatrix in="SourceAlpha" type="matrix" values="0 0 0 0 0 0 0 0 0 0 0 0 0 0 0 0 0 0 127 0"/>
<feOffset dy="36"/>
<feGaussianBlur stdDeviation="22"/>
<feColorMatrix type="matrix" values="0 0 0 0 0.55445 0 0 0 0 0.056549 0 0 0 0 0.751294 0 0 0 0.31 0"/>
<feBlend mode="normal" in2="BackgroundImageFix" result="effect1_dropShadow"/>
<feBlend mode="normal" in="SourceGraphic" in2="effect1_dropShadow" result="shape"/>
</filter>
<filter id="filter4_ddd" x="527" y="282" width="576" height="576" filterUnits="userSpaceOnUse" color-interpolation-filters="sRGB">
<feFlood flood-opacity="0" result="BackgroundImageFix"/>
<feColorMatrix in="SourceAlpha" type="matrix" values="0 0 0 0 0 0 0 0 0 0 0 0 0 0 0 0 0 0 127 0"/>
<feOffset dy="40"/>
<feGaussianBlur stdDeviation="36"/>
<feColorMatrix type="matrix" values="0 0 0 0 0.15 0 0 0 0 0.235 0 0 0 0 1 0 0 0 0.7 0"/>
<feBlend mode="normal" in2="BackgroundImageFix" result="effect1_dropShadow"/>
<feColorMatrix in="SourceAlpha" type="matrix" values="0 0 0 0 0 0 0 0 0 0 0 0 0 0 0 0 0 0 127 0"/>
<feOffset/>
<feGaussianBlur stdDeviation="20"/>
<feColorMatrix type="matrix" values="0 0 0 0 0.14902 0 0 0 0 0.235294 0 0 0 0 1 0 0 0 1 0"/>
<feBlend mode="normal" in2="effect1_dropShadow" result="effect2_dropShadow"/>
<feColorMatrix in="SourceAlpha" type="matrix" values="0 0 0 0 0 0 0 0 0 0 0 0 0 0 0 0 0 0 127 0"/>
<feOffset/>
<feGaussianBlur stdDeviation="64"/>
<feColorMatrix type="matrix" values="0 0 0 0 0.175 0 0 0 0 0.4555 0 0 0 0 1 0 0 0 1 0"/>
<feBlend mode="normal" in2="effect2_dropShadow" result="effect3_dropShadow"/>
<feBlend mode="normal" in="SourceGraphic" in2="effect3_dropShadow" result="shape"/>
</filter>
<filter id="filter5_d" x="200.681" y="687.42" width="304.9" height="304.9" filterUnits="userSpaceOnUse" color-interpolation-filters="sRGB">
<feFlood flood-opacity="0" result="BackgroundImageFix"/>
<feColorMatrix in="SourceAlpha" type="matrix" values="0 0 0 0 0 0 0 0 0 0 0 0 0 0 0 0 0 0 127 0"/>
<feOffset dx="-37" dy="-25"/>
<feGaussianBlur stdDeviation="29.418"/>
<feColorMatrix type="matrix" values="0 0 0 0 0 0 0 0 0 0.5 0 0 0 0 1 0 0 0 0.15 0"/>
<feBlend mode="normal" in2="BackgroundImageFix" result="effect1_dropShadow"/>
<feBlend mode="normal" in="SourceGraphic" in2="effect1_dropShadow" result="shape"/>
</filter>
<filter id="filter6_d" x="1097.48" y="638.518" width="444" height="444" filterUnits="userSpaceOnUse" color-interpolation-filters="sRGB">
<feFlood flood-opacity="0" result="BackgroundImageFix"/>
<feColorMatrix in="SourceAlpha" type="matrix" values="0 0 0 0 0 0 0 0 0 0 0 0 0 0 0 0 0 0 127 0"/>
<feOffset dx="-56" dy="-32"/>
<feGaussianBlur stdDeviation="50.5"/>
<feColorMatrix type="matrix" values="0 0 0 0 0 0 0 0 0 0.5 0 0 0 0 1 0 0 0 0.34 0"/>
<feBlend mode="normal" in2="BackgroundImageFix" result="effect1_dropShadow"/>
<feBlend mode="normal" in="SourceGraphic" in2="effect1_dropShadow" result="shape"/>
</filter>
<radialGradient id="paint0_radial" cx="0" cy="0" r="1" gradientUnits="userSpaceOnUse" gradientTransform="translate(571.5 571.5) rotate(90) scale(571.5)">
<stop offset="0.197917" stop-color="#4B7DFE" stop-opacity="0.26"/>
<stop offset="1" stop-color="#4251FA" stop-opacity="0"/>
</radialGradient>
<linearGradient id="paint1_linear" x1="0" y1="0" x2="120.455" y2="120.455" gradientUnits="userSpaceOnUse">
<stop stop-color="#E644F8"/>
<stop offset="1" stop-color="#C01AEA" stop-opacity="0"/>
</linearGradient>
<radialGradient id="paint2_radial" cx="0" cy="0" r="1" gradientUnits="userSpaceOnUse" gradientTransform="translate(33 23) rotate(50.7391) scale(141.423 172.619)">
<stop offset="0.0520833" stop-color="#B420D9"/>
<stop offset="0.510417" stop-color="#660E7C"/>
<stop offset="0.864583" stop-color="#1E0A4F"/>
</radialGradient>
<linearGradient id="paint3_linear" x1="655" y1="410" x2="975" y2="730" gradientUnits="userSpaceOnUse">
<stop offset="0.151042" stop-color="#F9FBFE"/>
<stop offset="0.6875" stop-color="#F8FAFF"/>
</linearGradient>
<linearGradient id="paint4_linear" x1="0" y1="0" x2="161.07" y2="161.07" gradientUnits="userSpaceOnUse">
<stop stop-color="#2B6CFF"/>
<stop offset="1" stop-color="#2B6CFF" stop-opacity="0.1"/>
</linearGradient>
<radialGradient id="paint5_radial" cx="0" cy="0" r="1" gradientUnits="userSpaceOnUse" gradientTransform="translate(44.127 30.7552) rotate(50.7391) scale(189.108 230.823)">
<stop offset="0.0729167" stop-color="#4251FA"/>
<stop offset="0.510417" stop-color="#261798"/>
<stop offset="0.864583" stop-color="#1B064F"/>
</radialGradient>
<linearGradient id="paint6_linear" x1="-5.40913e-07" y1="-5.40913e-07" x2="250.643" y2="250.643" gradientUnits="userSpaceOnUse">
<stop stop-color="#40B3FF"/>
<stop offset="1" stop-color="#0080FF" stop-opacity="0"/>
</linearGradient>
<linearGradient id="paint7_linear" x1="0" y1="0" x2="229.036" y2="229.036" gradientUnits="userSpaceOnUse">
<stop stop-color="#0080FF"/>
<stop offset="1" stop-color="#4251FA" stop-opacity="0"/>
</linearGradient>
<radialGradient id="paint8_radial" cx="0" cy="0" r="1" gradientUnits="userSpaceOnUse" gradientTransform="translate(64 53) rotate(50.1265) scale(223.836)">
<stop offset="0.00839563" stop-color="#40B3FF"/>
<stop offset="0.510417" stop-color="#016AD4"/>
<stop offset="0.864583" stop-color="#091E55"/>
</radialGradient>
<linearGradient id="paint9_linear" x1="1507.64" y1="856.42" x2="1396.76" y2="1061.28" gradientUnits="userSpaceOnUse">
<stop stop-color="white" stop-opacity="0.2"/>
<stop offset="1" stop-color="white" stop-opacity="0.4"/>
</linearGradient>
<linearGradient id="paint10_linear" x1="1333.54" y1="859.339" x2="1494.88" y2="995.915" gradientUnits="userSpaceOnUse">
<stop stop-color="white" stop-opacity="0.2"/>
<stop offset="1" stop-color="white" stop-opacity="0.4"/>
</linearGradient>
</defs>
</svg>
