<svg width="1390" height="1151" viewBox="0 0 1390 1151" fill="none" xmlns="http://www.w3.org/2000/svg">
<circle r="570" transform="matrix(-1 0 0 1 695 570)" fill="url(#paint0_radial)"/>
<g opacity="0.3">
<g filter="url(#filter0_i)">
<ellipse cx="695" cy="698.003" rx="694" ry="452" fill="white" fill-opacity="0.01"/>
</g>
<ellipse cx="695" cy="698.003" rx="694" ry="452" stroke="#636CBD"/>
</g>
<g opacity="0.3">
<g filter="url(#filter1_i)">
<ellipse cx="695" cy="643" rx="539" ry="351" fill="white" fill-opacity="0.01"/>
</g>
<ellipse cx="695" cy="643" rx="539" ry="351" stroke="#636CBD"/>
</g>
<path d="M1141.69 596.503C1141.69 676.411 1091.91 748.928 1011.07 801.53C930.241 854.124 818.496 886.697 695 886.697C571.504 886.697 459.759 854.124 378.928 801.53C298.085 748.928 248.306 676.411 248.306 596.503C248.306 516.595 298.085 444.078 378.928 391.476C459.759 338.882 571.504 306.309 695 306.309C818.496 306.309 930.241 338.882 1011.07 391.476C1091.91 444.078 1141.69 516.595 1141.69 596.503Z" stroke="url(#paint1_angular)" stroke-width="2.61151"/>
<g opacity="0.3">
<g filter="url(#filter2_i)">
<ellipse cx="695" cy="584.503" rx="380" ry="247.5" fill="white" fill-opacity="0.01"/>
</g>
<ellipse cx="695" cy="584.503" rx="380" ry="247.5" stroke="#636CBD"/>
</g>
<g filter="url(#filter3_ddd)">
<circle cx="695" cy="546" r="193" fill="url(#paint2_linear)"/>
<circle cx="695" cy="546" r="189.826" stroke="#B3C7FF" stroke-opacity="0.38" stroke-width="6.34868"/>
</g>
<g opacity="0.4" filter="url(#filter4_d)">
<path fill-rule="evenodd" clip-rule="evenodd" d="M634.127 634.953L657.426 594.597L634.127 554.242L587.528 554.242L564.229 594.597L587.528 634.953L634.127 634.953ZM585.14 639.088L636.514 639.088L662.201 594.597L636.514 550.106L585.14 550.106L559.453 594.597L585.14 639.088Z" fill="white"/>
</g>
<g opacity="0.4" filter="url(#filter5_d)">
<path fill-rule="evenodd" clip-rule="evenodd" d="M741.599 643.194L718.299 602.838L671.701 602.838L648.401 643.194L671.701 683.549L718.299 683.549L741.599 643.194ZM720.687 687.685L746.374 643.194L720.687 598.703L669.313 598.703L643.626 643.194L669.313 687.685L720.687 687.685Z" fill="white"/>
</g>
<g opacity="0.7" filter="url(#filter6_d)">
<path fill-rule="evenodd" clip-rule="evenodd" d="M755.873 634.952L802.472 634.952L825.771 594.597L802.472 554.241L755.873 554.241L732.574 594.597L755.873 634.952ZM727.799 594.597L753.486 639.088L804.86 639.088L830.547 594.597L804.86 550.105L753.486 550.105L727.799 594.597Z" fill="white"/>
</g>
<g filter="url(#filter7_d)">
<path fill-rule="evenodd" clip-rule="evenodd" d="M802.472 537.759L825.771 497.403L802.472 457.048L755.874 457.048L732.574 497.403L755.874 537.759L802.472 537.759ZM753.486 541.895L804.86 541.895L830.547 497.403L804.86 452.912L753.486 452.912L727.799 497.403L753.486 541.895Z" fill="white"/>
</g>
<g opacity="0.8" filter="url(#filter8_d)">
<path fill-rule="evenodd" clip-rule="evenodd" d="M741.599 448.806L718.299 408.45L671.701 408.45L648.401 448.806L671.701 489.161L718.299 489.161L741.599 448.806ZM720.687 493.297L746.374 448.806L720.687 404.314L669.313 404.314L643.626 448.806L669.313 493.297L720.687 493.297Z" fill="white"/>
</g>
<g opacity="0.4" filter="url(#filter9_d)">
<path fill-rule="evenodd" clip-rule="evenodd" d="M587.528 537.759L634.127 537.759L657.426 497.403L634.127 457.048L587.528 457.048L564.229 497.403L587.528 537.759ZM559.453 497.403L585.14 541.894L636.514 541.894L662.201 497.403L636.514 452.912L585.14 452.912L559.453 497.403Z" fill="white"/>
</g>
<g filter="url(#filter10_d)">
<path fill-rule="evenodd" clip-rule="evenodd" d="M741.599 546.001L718.299 505.645L671.701 505.645L648.401 546.001L671.701 586.356L718.299 586.356L741.599 546.001ZM720.687 590.492L746.374 546.001L720.687 501.509L669.313 501.509L643.626 546.001L669.313 590.492L720.687 590.492Z" fill="white"/>
</g>
<path d="M1050.98 780.669H1055.32V793.003H1057V780.669H1061.34V779.185H1050.98V780.669ZM1066.46 793.219C1068.56 793.219 1070.1 792.166 1070.59 790.601L1069.05 790.169C1068.64 791.249 1067.7 791.788 1066.46 791.788C1064.59 791.788 1063.3 790.581 1063.22 788.361H1070.75V787.686C1070.75 783.827 1068.45 782.504 1066.29 782.504C1063.49 782.504 1061.63 784.717 1061.63 787.902C1061.63 791.087 1063.46 793.219 1066.46 793.219ZM1063.22 786.984C1063.33 785.372 1064.47 783.935 1066.29 783.935C1068.02 783.935 1069.13 785.23 1069.13 786.984H1063.22ZM1074.67 786.769C1074.67 784.96 1075.79 783.935 1077.31 783.935C1078.79 783.935 1079.69 784.9 1079.69 786.526V793.003H1081.28V786.418C1081.28 783.773 1079.87 782.504 1077.77 782.504C1076.21 782.504 1075.23 783.206 1074.75 784.259H1074.61V782.639H1073.07V793.003H1074.67V786.769ZM1088.01 793.219C1090 793.219 1090.68 791.977 1091.03 791.411H1091.22V793.003H1092.76V779.185H1091.16V784.286H1091.03C1090.68 783.746 1090.06 782.504 1088.03 782.504C1085.42 782.504 1083.61 784.582 1083.61 787.848C1083.61 791.141 1085.42 793.219 1088.01 793.219ZM1088.22 791.788C1086.23 791.788 1085.2 790.034 1085.2 787.821C1085.2 785.635 1086.2 783.935 1088.22 783.935C1090.17 783.935 1091.19 785.5 1091.19 787.821C1091.19 790.169 1090.14 791.788 1088.22 791.788ZM1100.14 793.219C1102.25 793.219 1103.79 792.166 1104.27 790.601L1102.74 790.169C1102.33 791.249 1101.39 791.788 1100.14 791.788C1098.28 791.788 1096.99 790.581 1096.91 788.361H1104.44V787.686C1104.44 783.827 1102.14 782.504 1099.98 782.504C1097.18 782.504 1095.31 784.717 1095.31 787.902C1095.31 791.087 1097.15 793.219 1100.14 793.219ZM1096.91 786.984C1097.02 785.372 1098.16 783.935 1099.98 783.935C1101.71 783.935 1102.82 785.23 1102.82 786.984H1096.91ZM1106.76 793.003H1108.36V786.445C1108.36 785.041 1109.46 784.016 1110.97 784.016C1111.4 784.016 1111.84 784.097 1111.94 784.124V782.504C1111.76 782.491 1111.34 782.477 1111.11 782.477C1109.87 782.477 1108.79 783.179 1108.41 784.205H1108.3V782.639H1106.76V793.003ZM1113.74 793.003H1115.33V786.526C1115.33 785.008 1116.44 783.935 1117.68 783.935C1118.89 783.935 1119.73 784.724 1119.73 785.905V793.003H1121.35V786.256C1121.35 784.92 1122.18 783.935 1123.64 783.935C1124.78 783.935 1125.75 784.535 1125.75 786.067V793.003H1127.34V786.067C1127.34 783.631 1126.03 782.504 1124.18 782.504C1122.7 782.504 1121.61 783.186 1121.08 784.259H1120.97C1120.46 783.152 1119.55 782.504 1118.19 782.504C1116.84 782.504 1115.84 783.152 1115.41 784.259H1115.28V782.639H1113.74V793.003ZM1130.16 793.003H1131.75V782.639H1130.16V793.003ZM1130.97 780.912C1131.59 780.912 1132.1 780.426 1132.1 779.832C1132.1 779.239 1131.59 778.753 1130.97 778.753C1130.34 778.753 1129.83 779.239 1129.83 779.832C1129.83 780.426 1130.34 780.912 1130.97 780.912ZM1136.16 786.769C1136.16 784.96 1137.28 783.935 1138.81 783.935C1140.28 783.935 1141.18 784.9 1141.18 786.526V793.003H1142.77V786.418C1142.77 783.773 1141.36 782.504 1139.27 782.504C1137.7 782.504 1136.73 783.206 1136.24 784.259H1136.11V782.639H1134.57V793.003H1136.16V786.769ZM1150.1 782.639H1147.88V780.156H1146.29V782.639H1144.73V783.989H1146.29V790.466C1146.29 792.274 1147.75 793.138 1149.1 793.138C1149.69 793.138 1150.07 793.03 1150.29 792.949L1149.96 791.519C1149.83 791.546 1149.61 791.6 1149.26 791.6C1148.56 791.6 1147.88 791.384 1147.88 790.034V783.989H1150.1V782.639Z" fill="#989BB9"/>
<path d="M1101 666.003L1125 712.003H1077L1101 666.003Z" fill="url(#paint3_linear)"/>
<path d="M1101 758.003L1125 712.003H1077L1101 758.003Z" fill="url(#paint4_linear)"/>
<path d="M1101 666.003L1112.96 712.003H1089.04L1101 666.003Z" fill="url(#paint5_linear)"/>
<path d="M1101 758.003L1112.96 712.003H1089.04L1101 758.003Z" fill="url(#paint6_linear)"/>
<path d="M621.575 160.182H619.901V174H621.575V160.182ZM626.211 167.766C626.211 165.957 627.331 164.932 628.856 164.932C630.334 164.932 631.231 165.897 631.231 167.523V174H632.823V167.415C632.823 164.77 631.413 163.501 629.315 163.501C627.75 163.501 626.778 164.203 626.292 165.256H626.157V163.636H624.619V174H626.211V167.766ZM640.253 163.636H637.932V162.584C637.932 161.558 638.364 161.018 639.416 161.018C639.875 161.018 640.145 161.126 640.307 161.18L640.766 159.804C640.523 159.696 640.037 159.534 639.255 159.534C637.77 159.534 636.34 160.425 636.34 162.206V163.636H634.666V164.986H636.34V174H637.932V164.986H640.253V163.636ZM646.173 174.216C648.98 174.216 650.869 172.084 650.869 168.872C650.869 165.634 648.98 163.501 646.173 163.501C643.366 163.501 641.477 165.634 641.477 168.872C641.477 172.084 643.366 174.216 646.173 174.216ZM646.173 172.786C644.041 172.786 643.07 170.95 643.07 168.872C643.07 166.794 644.041 164.932 646.173 164.932C648.305 164.932 649.277 166.794 649.277 168.872C649.277 170.95 648.305 172.786 646.173 172.786ZM653.205 174H654.797V167.442C654.797 166.038 655.904 165.013 657.415 165.013C657.84 165.013 658.279 165.094 658.387 165.121V163.501C658.205 163.488 657.786 163.474 657.55 163.474C656.309 163.474 655.229 164.176 654.851 165.202H654.743V163.636H653.205V174ZM660.179 174H661.772V167.523C661.772 166.005 662.878 164.932 664.12 164.932C665.327 164.932 666.171 165.721 666.171 166.902V174H667.79V167.253C667.79 165.917 668.627 164.932 670.084 164.932C671.218 164.932 672.189 165.532 672.189 167.064V174H673.782V167.064C673.782 164.628 672.473 163.501 670.624 163.501C669.139 163.501 668.053 164.183 667.52 165.256H667.412C666.899 164.149 665.995 163.501 664.632 163.501C663.283 163.501 662.284 164.149 661.853 165.256H661.718V163.636H660.179V174ZM679.648 174.243C681.456 174.243 682.4 173.271 682.724 172.597H682.805V174H684.398V167.172C684.398 163.879 681.888 163.501 680.565 163.501C679 163.501 677.219 164.041 676.409 165.93L677.92 166.47C678.271 165.714 679.101 164.905 680.619 164.905C682.083 164.905 682.805 165.681 682.805 167.01V167.064C682.805 167.833 682.023 167.766 680.133 168.009C678.211 168.258 676.112 168.683 676.112 171.058C676.112 173.082 677.677 174.243 679.648 174.243ZM679.891 172.812C678.622 172.812 677.704 172.246 677.704 171.139C677.704 169.925 678.811 169.547 680.052 169.385C680.727 169.304 682.535 169.115 682.805 168.791V170.249C682.805 171.544 681.78 172.812 679.891 172.812ZM688.801 160.182H687.209V174H688.801V160.182ZM704.644 163.636H706.264C706.189 161.551 704.266 159.993 701.595 159.993C698.95 159.993 696.872 161.531 696.872 163.852C696.872 165.714 698.221 166.821 700.38 167.442L702.08 167.928C703.538 168.332 704.833 168.845 704.833 170.222C704.833 171.733 703.376 172.732 701.46 172.732C699.813 172.732 698.356 172.003 698.221 170.438H696.494C696.656 172.705 698.491 174.243 701.46 174.243C704.644 174.243 706.452 172.489 706.452 170.249C706.452 167.658 703.997 166.821 702.566 166.443L701.163 166.065C700.137 165.795 698.491 165.256 698.491 163.771C698.491 162.449 699.705 161.477 701.541 161.477C703.214 161.477 704.482 162.273 704.644 163.636ZM709.918 177.886C711.355 177.886 712.368 177.124 712.968 175.511L717.381 163.663L715.64 163.636L712.779 171.895H712.671L709.81 163.636H708.083L711.915 174.054L711.619 174.864C711.038 176.442 710.323 176.591 709.163 176.294L708.758 177.697C708.92 177.778 709.379 177.886 709.918 177.886ZM726.733 165.957C726.234 164.487 725.114 163.501 723.063 163.501C720.877 163.501 719.258 164.743 719.258 166.497C719.258 167.928 720.108 168.886 722.01 169.331L723.738 169.736C724.783 169.979 725.276 170.478 725.276 171.193C725.276 172.084 724.331 172.812 722.847 172.812C721.545 172.812 720.728 172.252 720.445 171.139L718.934 171.517C719.305 173.278 720.755 174.216 722.874 174.216C725.283 174.216 726.922 172.9 726.922 171.112C726.922 169.668 726.018 168.757 724.169 168.305L722.631 167.928C721.403 167.624 720.85 167.212 720.85 166.416C720.85 165.526 721.794 164.878 723.063 164.878C724.453 164.878 725.026 165.647 725.303 166.362L726.733 165.957ZM733.731 163.636H731.518V161.153H729.926V163.636H728.361V164.986H729.926V171.463C729.926 173.271 731.383 174.135 732.733 174.135C733.327 174.135 733.704 174.027 733.92 173.946L733.596 172.516C733.461 172.543 733.246 172.597 732.895 172.597C732.193 172.597 731.518 172.381 731.518 171.031V164.986H733.731V163.636ZM740.265 174.216C742.371 174.216 743.909 173.163 744.395 171.598L742.856 171.166C742.451 172.246 741.514 172.786 740.265 172.786C738.396 172.786 737.108 171.578 737.034 169.358H744.557V168.683C744.557 164.824 742.263 163.501 740.103 163.501C737.297 163.501 735.434 165.714 735.434 168.899C735.434 172.084 737.27 174.216 740.265 174.216ZM737.034 167.982C737.141 166.369 738.282 164.932 740.103 164.932C741.831 164.932 742.937 166.227 742.937 167.982H737.034ZM746.884 174H748.476V167.523C748.476 166.005 749.583 164.932 750.824 164.932C752.032 164.932 752.875 165.721 752.875 166.902V174H754.495V167.253C754.495 165.917 755.331 164.932 756.789 164.932C757.922 164.932 758.894 165.532 758.894 167.064V174H760.486V167.064C760.486 164.628 759.177 163.501 757.328 163.501C755.844 163.501 754.758 164.183 754.225 165.256H754.117C753.604 164.149 752.7 163.501 751.337 163.501C749.988 163.501 748.989 164.149 748.557 165.256H748.422V163.636H746.884V174ZM770.643 165.957C770.144 164.487 769.024 163.501 766.973 163.501C764.787 163.501 763.168 164.743 763.168 166.497C763.168 167.928 764.018 168.886 765.92 169.331L767.648 169.736C768.693 169.979 769.186 170.478 769.186 171.193C769.186 172.084 768.241 172.812 766.757 172.812C765.455 172.812 764.638 172.252 764.355 171.139L762.844 171.517C763.215 173.278 764.665 174.216 766.784 174.216C769.193 174.216 770.832 172.9 770.832 171.112C770.832 169.668 769.928 168.757 768.079 168.305L766.541 167.928C765.313 167.624 764.76 167.212 764.76 166.416C764.76 165.526 765.704 164.878 766.973 164.878C768.363 164.878 768.936 165.647 769.213 166.362L770.643 165.957Z" fill="#989BB9"/>
<path d="M693 195L717 241H669L693 195Z" fill="url(#paint7_linear)"/>
<path d="M693 287L717 241H669L693 287Z" fill="url(#paint8_linear)"/>
<path d="M693 195L704.956 241H681.044L693 195Z" fill="url(#paint9_linear)"/>
<path d="M693 287L704.956 241H681.044L693 287Z" fill="url(#paint10_linear)"/>
<path d="M290 353L314 399H266L290 353Z" fill="url(#paint11_linear)"/>
<path d="M290 445L314 399H266L290 445Z" fill="url(#paint12_linear)"/>
<path d="M290 353L301.956 399H278.044L290 353Z" fill="url(#paint13_linear)"/>
<path d="M290 445L301.956 399H278.044L290 445Z" fill="url(#paint14_linear)"/>
<path d="M236.227 333H237.9V326.82H243.891V325.335H237.9V320.666H244.512V319.182H236.227V333ZM247.067 333H248.659V322.636H247.067V333ZM247.877 320.909C248.497 320.909 249.01 320.423 249.01 319.83C249.01 319.236 248.497 318.75 247.877 318.75C247.256 318.75 246.743 319.236 246.743 319.83C246.743 320.423 247.256 320.909 247.877 320.909ZM258.822 324.957C258.322 323.487 257.202 322.501 255.151 322.501C252.965 322.501 251.346 323.743 251.346 325.497C251.346 326.928 252.196 327.886 254.099 328.331L255.826 328.736C256.872 328.979 257.364 329.478 257.364 330.193C257.364 331.084 256.42 331.812 254.935 331.812C253.633 331.812 252.817 331.252 252.533 330.139L251.022 330.517C251.393 332.278 252.844 333.216 254.962 333.216C257.371 333.216 259.011 331.9 259.011 330.112C259.011 328.668 258.107 327.757 256.258 327.305L254.719 326.928C253.491 326.624 252.938 326.212 252.938 325.416C252.938 324.526 253.883 323.878 255.151 323.878C256.541 323.878 257.115 324.647 257.391 325.362L258.822 324.957ZM268.653 324.957C268.154 323.487 267.034 322.501 264.983 322.501C262.797 322.501 261.178 323.743 261.178 325.497C261.178 326.928 262.028 327.886 263.93 328.331L265.658 328.736C266.704 328.979 267.196 329.478 267.196 330.193C267.196 331.084 266.251 331.812 264.767 331.812C263.465 331.812 262.648 331.252 262.365 330.139L260.854 330.517C261.225 332.278 262.675 333.216 264.794 333.216C267.203 333.216 268.842 331.9 268.842 330.112C268.842 328.668 267.938 327.757 266.09 327.305L264.551 326.928C263.323 326.624 262.77 326.212 262.77 325.416C262.77 324.526 263.715 323.878 264.983 323.878C266.373 323.878 266.946 324.647 267.223 325.362L268.653 324.957ZM271.144 333H272.737V322.636H271.144V333ZM271.954 320.909C272.575 320.909 273.087 320.423 273.087 319.83C273.087 319.236 272.575 318.75 271.954 318.75C271.333 318.75 270.82 319.236 270.82 319.83C270.82 320.423 271.333 320.909 271.954 320.909ZM279.768 333.216C282.575 333.216 284.464 331.084 284.464 327.872C284.464 324.634 282.575 322.501 279.768 322.501C276.962 322.501 275.072 324.634 275.072 327.872C275.072 331.084 276.962 333.216 279.768 333.216ZM279.768 331.786C277.636 331.786 276.665 329.95 276.665 327.872C276.665 325.794 277.636 323.932 279.768 323.932C281.9 323.932 282.872 325.794 282.872 327.872C282.872 329.95 281.9 331.786 279.768 331.786ZM288.392 326.766C288.392 324.957 289.512 323.932 291.037 323.932C292.515 323.932 293.412 324.897 293.412 326.523V333H295.005V326.415C295.005 323.77 293.594 322.501 291.496 322.501C289.931 322.501 288.959 323.203 288.473 324.256H288.338V322.636H286.8V333H288.392V326.766ZM303.284 333H311.381V331.516H304.957V319.182H303.284V333ZM316.71 333.243C318.518 333.243 319.463 332.271 319.787 331.597H319.868V333H321.46V326.172C321.46 322.879 318.95 322.501 317.628 322.501C316.062 322.501 314.281 323.041 313.472 324.93L314.983 325.47C315.334 324.714 316.164 323.905 317.682 323.905C319.146 323.905 319.868 324.681 319.868 326.01V326.064C319.868 326.833 319.085 326.766 317.196 327.009C315.273 327.258 313.175 327.683 313.175 330.058C313.175 332.082 314.74 333.243 316.71 333.243ZM316.953 331.812C315.685 331.812 314.767 331.246 314.767 330.139C314.767 328.925 315.874 328.547 317.115 328.385C317.79 328.304 319.598 328.115 319.868 327.791V329.249C319.868 330.544 318.842 331.812 316.953 331.812ZM324.487 333H326.026V331.408H326.215C326.566 331.974 327.24 333.216 329.237 333.216C331.828 333.216 333.637 331.138 333.637 327.845C333.637 324.58 331.828 322.501 329.211 322.501C327.186 322.501 326.566 323.743 326.215 324.283H326.08V319.182H324.487V333ZM326.053 327.818C326.053 325.497 327.078 323.932 329.022 323.932C331.046 323.932 332.044 325.632 332.044 327.818C332.044 330.031 331.019 331.786 329.022 331.786C327.105 331.786 326.053 330.166 326.053 327.818ZM343.318 324.957C342.819 323.487 341.699 322.501 339.648 322.501C337.462 322.501 335.842 323.743 335.842 325.497C335.842 326.928 336.693 327.886 338.595 328.331L340.323 328.736C341.368 328.979 341.861 329.478 341.861 330.193C341.861 331.084 340.916 331.812 339.432 331.812C338.13 331.812 337.313 331.252 337.03 330.139L335.519 330.517C335.89 332.278 337.34 333.216 339.459 333.216C341.868 333.216 343.507 331.9 343.507 330.112C343.507 328.668 342.603 327.757 340.754 327.305L339.216 326.928C337.988 326.624 337.435 326.212 337.435 325.416C337.435 324.526 338.379 323.878 339.648 323.878C341.038 323.878 341.611 324.647 341.888 325.362L343.318 324.957Z" fill="#989BB9"/>
<path d="M696 816.003L720 862.003H672L696 816.003Z" fill="url(#paint15_angular)"/>
<path d="M696 908.003L720 862.003H672L696 908.003Z" fill="url(#paint16_angular)"/>
<path d="M696 816.003L707.956 862.003H684.044L696 816.003Z" fill="url(#paint17_linear)"/>
<path d="M696 908.003L707.956 862.003H684.044L696 908.003Z" fill="url(#paint18_linear)"/>
<path d="M664.158 929.185H662.485V943.003H664.158V929.185ZM675.866 946.889V932.639H674.327V934.286H674.138C673.787 933.746 673.167 932.504 671.143 932.504C668.525 932.504 666.716 934.582 666.716 937.848C666.716 941.141 668.525 943.219 671.116 943.219C673.113 943.219 673.787 941.977 674.138 941.411H674.273V946.889H675.866ZM674.3 937.821C674.3 940.169 673.248 941.788 671.331 941.788C669.334 941.788 668.309 940.034 668.309 937.821C668.309 935.635 669.307 933.935 671.331 933.935C673.275 933.935 674.3 935.5 674.3 937.821ZM680.278 929.185H678.685V943.003H680.278V929.185ZM689.63 938.766C689.63 940.709 688.146 941.6 686.959 941.6C685.636 941.6 684.691 940.628 684.691 939.117V932.639H683.099V939.225C683.099 941.869 684.503 943.138 686.446 943.138C688.011 943.138 689.037 942.301 689.522 941.249H689.63V943.003H691.223V932.639H689.63V938.766ZM701.385 934.96C700.886 933.489 699.766 932.504 697.715 932.504C695.529 932.504 693.909 933.746 693.909 935.5C693.909 936.93 694.759 937.889 696.662 938.334L698.389 938.739C699.435 938.982 699.928 939.481 699.928 940.196C699.928 941.087 698.983 941.815 697.499 941.815C696.197 941.815 695.38 941.255 695.097 940.142L693.585 940.52C693.956 942.281 695.407 943.219 697.526 943.219C699.934 943.219 701.574 941.903 701.574 940.115C701.574 938.671 700.67 937.76 698.821 937.308L697.283 936.93C696.055 936.627 695.502 936.215 695.502 935.419C695.502 934.528 696.446 933.881 697.715 933.881C699.105 933.881 699.678 934.65 699.955 935.365L701.385 934.96ZM703.876 943.003H705.468V932.639H703.876V943.003ZM704.686 930.912C705.306 930.912 705.819 930.426 705.819 929.832C705.819 929.239 705.306 928.753 704.686 928.753C704.065 928.753 703.552 929.239 703.552 929.832C703.552 930.426 704.065 930.912 704.686 930.912ZM712.5 943.219C715.307 943.219 717.196 941.087 717.196 937.875C717.196 934.636 715.307 932.504 712.5 932.504C709.693 932.504 707.804 934.636 707.804 937.875C707.804 941.087 709.693 943.219 712.5 943.219ZM712.5 941.788C710.368 941.788 709.396 939.953 709.396 937.875C709.396 935.797 710.368 933.935 712.5 933.935C714.632 933.935 715.604 935.797 715.604 937.875C715.604 939.953 714.632 941.788 712.5 941.788ZM721.124 936.769C721.124 934.96 722.244 933.935 723.769 933.935C725.246 933.935 726.144 934.9 726.144 936.526V943.003H727.736V936.418C727.736 933.773 726.326 932.504 724.228 932.504C722.662 932.504 721.691 933.206 721.205 934.259H721.07V932.639H719.532V943.003H721.124V936.769Z" fill="#989BB9"/>
<path d="M667.227 789.5C666.876 787.561 665.325 786.416 663.423 786.416C661.004 786.416 659.25 788.281 659.25 791.273C659.25 794.264 661.004 796.129 663.423 796.129C665.325 796.129 666.876 794.984 667.227 793.045H666.082C665.805 794.357 664.679 795.058 663.423 795.058C661.706 795.058 660.358 793.729 660.358 791.273C660.358 788.817 661.706 787.487 663.423 787.487C664.679 787.487 665.805 788.189 666.082 789.5H667.227ZM671.823 796.148C673.743 796.148 675.036 794.689 675.036 792.491C675.036 790.276 673.743 788.817 671.823 788.817C669.902 788.817 668.61 790.276 668.61 792.491C668.61 794.689 669.902 796.148 671.823 796.148ZM671.823 795.169C670.364 795.169 669.699 793.913 669.699 792.491C669.699 791.07 670.364 789.795 671.823 789.795C673.282 789.795 673.946 791.07 673.946 792.491C673.946 793.913 673.282 795.169 671.823 795.169ZM679.593 796.148C681.513 796.148 682.806 794.689 682.806 792.491C682.806 790.276 681.513 788.817 679.593 788.817C677.672 788.817 676.38 790.276 676.38 792.491C676.38 794.689 677.672 796.148 679.593 796.148ZM679.593 795.169C678.134 795.169 677.469 793.913 677.469 792.491C677.469 791.07 678.134 789.795 679.593 789.795C681.052 789.795 681.716 791.07 681.716 792.491C681.716 793.913 681.052 795.169 679.593 795.169ZM684.482 796H685.571V791.513C685.571 790.553 686.328 789.851 687.363 789.851C687.653 789.851 687.953 789.906 688.027 789.925V788.817C687.903 788.808 687.616 788.798 687.455 788.798C686.605 788.798 685.867 789.278 685.608 789.98H685.534V788.909H684.482V796ZM691.794 796.148C693.16 796.148 693.622 795.298 693.862 794.911H693.991V796H695.044V786.545H693.954V790.036H693.862C693.622 789.666 693.197 788.817 691.812 788.817C690.021 788.817 688.784 790.239 688.784 792.473C688.784 794.726 690.021 796.148 691.794 796.148ZM691.941 795.169C690.575 795.169 689.873 793.969 689.873 792.455C689.873 790.959 690.556 789.795 691.941 789.795C693.271 789.795 693.973 790.866 693.973 792.455C693.973 794.061 693.252 795.169 691.941 795.169ZM697.203 796H698.293V788.909H697.203V796ZM697.757 787.727C698.182 787.727 698.533 787.395 698.533 786.989C698.533 786.582 698.182 786.25 697.757 786.25C697.332 786.25 696.982 786.582 696.982 786.989C696.982 787.395 697.332 787.727 697.757 787.727ZM701.391 791.734C701.391 790.497 702.157 789.795 703.2 789.795C704.211 789.795 704.825 790.456 704.825 791.568V796H705.915V791.494C705.915 789.685 704.95 788.817 703.514 788.817C702.443 788.817 701.778 789.297 701.446 790.017H701.354V788.909H700.301V796H701.391V791.734ZM710.005 796.166C711.243 796.166 711.889 795.501 712.11 795.04H712.166V796H713.255V791.328C713.255 789.075 711.538 788.817 710.633 788.817C709.562 788.817 708.343 789.186 707.789 790.479L708.823 790.848C709.064 790.331 709.631 789.777 710.67 789.777C711.672 789.777 712.166 790.308 712.166 791.217V791.254C712.166 791.781 711.63 791.734 710.338 791.901C709.022 792.071 707.586 792.362 707.586 793.987C707.586 795.372 708.657 796.166 710.005 796.166ZM710.172 795.188C709.304 795.188 708.676 794.8 708.676 794.043C708.676 793.212 709.433 792.953 710.282 792.842C710.744 792.787 711.981 792.658 712.166 792.436V793.433C712.166 794.32 711.464 795.188 710.172 795.188ZM718.341 788.909H716.826V787.21H715.737V788.909H714.666V789.832H715.737V794.264C715.737 795.501 716.734 796.092 717.657 796.092C718.064 796.092 718.322 796.018 718.47 795.963L718.248 794.984C718.156 795.003 718.008 795.04 717.768 795.04C717.288 795.04 716.826 794.892 716.826 793.969V789.832H718.341V788.909ZM722.797 796.148C724.717 796.148 726.01 794.689 726.01 792.491C726.01 790.276 724.717 788.817 722.797 788.817C720.877 788.817 719.584 790.276 719.584 792.491C719.584 794.689 720.877 796.148 722.797 796.148ZM722.797 795.169C721.338 795.169 720.673 793.913 720.673 792.491C720.673 791.07 721.338 789.795 722.797 789.795C724.256 789.795 724.921 791.07 724.921 792.491C724.921 793.913 724.256 795.169 722.797 795.169ZM727.686 796H728.776V791.513C728.776 790.553 729.533 789.851 730.567 789.851C730.858 789.851 731.158 789.906 731.232 789.925V788.817C731.107 788.808 730.821 788.798 730.659 788.798C729.81 788.798 729.071 789.278 728.813 789.98H728.739V788.909H727.686V796Z" fill="#CFD1E7"/>
<path d="M290 666.003L314 712.003H266L290 666.003Z" fill="url(#paint19_linear)"/>
<path d="M290 758.003L314 712.003H266L290 758.003Z" fill="url(#paint20_linear)"/>
<path d="M290 666.003L301.956 712.003H278.044L290 666.003Z" fill="url(#paint21_linear)"/>
<path d="M290 758.003L301.956 712.003H278.044L290 758.003Z" fill="url(#paint22_linear)"/>
<path d="M222.599 793.003H224.273V787.605H227.295C227.417 787.605 227.531 787.605 227.646 787.598L230.561 793.003H232.504L229.38 787.295C231.141 786.694 231.964 785.257 231.964 783.422C231.964 780.979 230.507 779.185 227.268 779.185H222.599V793.003ZM224.273 786.094V780.669H227.214C229.454 780.669 230.318 781.762 230.318 783.422C230.318 785.082 229.454 786.094 227.241 786.094H224.273ZM238.676 793.219C240.781 793.219 242.319 792.166 242.805 790.601L241.266 790.169C240.862 791.249 239.924 791.788 238.676 791.788C236.807 791.788 235.518 790.581 235.444 788.361H242.967V787.686C242.967 783.827 240.673 782.504 238.514 782.504C235.707 782.504 233.845 784.717 233.845 787.902C233.845 791.087 235.68 793.219 238.676 793.219ZM235.444 786.984C235.552 785.372 236.692 783.935 238.514 783.935C240.241 783.935 241.347 785.23 241.347 786.984H235.444ZM249.477 797.105C251.96 797.105 253.957 795.972 253.957 793.3V782.639H252.419V784.286H252.257C251.906 783.746 251.258 782.504 249.234 782.504C246.616 782.504 244.808 784.582 244.808 787.767C244.808 791.006 246.697 792.841 249.207 792.841C251.231 792.841 251.879 791.653 252.23 791.087H252.365V793.192C252.365 794.919 251.15 795.702 249.477 795.702C247.595 795.702 246.933 794.71 246.508 794.136L245.24 795.027C245.888 796.113 247.163 797.105 249.477 797.105ZM249.423 791.411C247.426 791.411 246.4 789.899 246.4 787.74C246.4 785.635 247.399 783.935 249.423 783.935C251.366 783.935 252.392 785.5 252.392 787.74C252.392 790.034 251.339 791.411 249.423 791.411ZM261.122 793.219C263.227 793.219 264.766 792.166 265.251 790.601L263.713 790.169C263.308 791.249 262.37 791.788 261.122 791.788C259.253 791.788 257.965 790.581 257.89 788.361H265.413V787.686C265.413 783.827 263.119 782.504 260.96 782.504C258.153 782.504 256.291 784.717 256.291 787.902C256.291 791.087 258.126 793.219 261.122 793.219ZM257.89 786.984C257.998 785.372 259.139 783.935 260.96 783.935C262.688 783.935 263.794 785.23 263.794 786.984H257.89ZM269.333 786.769C269.333 784.96 270.453 783.935 271.978 783.935C273.455 783.935 274.353 784.9 274.353 786.526V793.003H275.945V786.418C275.945 783.773 274.535 782.504 272.437 782.504C270.871 782.504 269.9 783.206 269.414 784.259H269.279V782.639H267.741V793.003H269.333V786.769ZM295.182 779.185H293.536V790.061H293.401L285.844 779.185H284.225V793.003H285.898V782.153H286.033L293.563 793.003H295.182V779.185ZM302.564 793.219C304.67 793.219 306.208 792.166 306.694 790.601L305.155 790.169C304.751 791.249 303.813 791.788 302.564 791.788C300.696 791.788 299.407 790.581 299.333 788.361H306.856V787.686C306.856 783.827 304.562 782.504 302.403 782.504C299.596 782.504 297.734 784.717 297.734 787.902C297.734 791.087 299.569 793.219 302.564 793.219ZM299.333 786.984C299.441 785.372 300.581 783.935 302.403 783.935C304.13 783.935 305.236 785.23 305.236 786.984H299.333ZM313.69 782.639H311.477V780.156H309.885V782.639H308.319V783.989H309.885V790.466C309.885 792.274 311.342 793.138 312.691 793.138C313.285 793.138 313.663 793.03 313.879 792.949L313.555 791.519C313.42 791.546 313.204 791.6 312.853 791.6C312.152 791.6 311.477 791.384 311.477 790.034V783.989H313.69V782.639ZM318.338 793.003H319.904L322.171 785.041H322.333L324.6 793.003H326.165L329.323 782.639H327.649L325.409 790.547H325.301L323.115 782.639H321.415L319.202 790.574H319.094L316.854 782.639H315.181L318.338 793.003ZM335.19 793.219C337.997 793.219 339.886 791.087 339.886 787.875C339.886 784.636 337.997 782.504 335.19 782.504C332.384 782.504 330.494 784.636 330.494 787.875C330.494 791.087 332.384 793.219 335.19 793.219ZM335.19 791.788C333.058 791.788 332.087 789.953 332.087 787.875C332.087 785.797 333.058 783.935 335.19 783.935C337.323 783.935 338.294 785.797 338.294 787.875C338.294 789.953 337.323 791.788 335.19 791.788ZM342.222 793.003H343.814V786.445C343.814 785.041 344.921 784.016 346.432 784.016C346.857 784.016 347.296 784.097 347.404 784.124V782.504C347.222 782.491 346.803 782.477 346.567 782.477C345.326 782.477 344.246 783.179 343.868 784.205H343.76V782.639H342.222V793.003ZM349.196 793.003H350.789V789.123L351.902 788.091L355.782 793.003H357.806L353.103 787.065L357.482 782.639H355.512L350.978 787.254H350.789V779.185H349.196V793.003Z" fill="#989BB9"/>
<path d="M1029.13 320.182H1027.46V334H1029.13V320.182ZM1033.77 327.766C1033.77 325.957 1034.89 324.932 1036.41 324.932C1037.89 324.932 1038.79 325.897 1038.79 327.523V334H1040.38V327.415C1040.38 324.77 1038.97 323.501 1036.87 323.501C1035.31 323.501 1034.34 324.203 1033.85 325.256H1033.72V323.636H1032.18V334H1033.77V327.766ZM1047.7 323.636H1045.49V321.153H1043.9V323.636H1042.33V324.986H1043.9V331.463C1043.9 333.271 1045.36 334.135 1046.71 334.135C1047.3 334.135 1047.68 334.027 1047.89 333.946L1047.57 332.516C1047.43 332.543 1047.22 332.597 1046.87 332.597C1046.17 332.597 1045.49 332.381 1045.49 331.031V324.986H1047.7V323.636ZM1054.24 334.216C1056.34 334.216 1057.88 333.163 1058.37 331.598L1056.83 331.166C1056.42 332.246 1055.49 332.786 1054.24 332.786C1052.37 332.786 1051.08 331.578 1051.01 329.358H1058.53V328.683C1058.53 324.824 1056.23 323.501 1054.08 323.501C1051.27 323.501 1049.41 325.714 1049.41 328.899C1049.41 332.084 1051.24 334.216 1054.24 334.216ZM1051.01 327.982C1051.11 326.369 1052.25 324.932 1054.08 324.932C1055.8 324.932 1056.91 326.227 1056.91 327.982H1051.01ZM1060.86 334H1062.45V327.442C1062.45 326.038 1063.56 325.013 1065.07 325.013C1065.49 325.013 1065.93 325.094 1066.04 325.121V323.501C1065.86 323.488 1065.44 323.474 1065.2 323.474C1063.96 323.474 1062.88 324.176 1062.5 325.202H1062.39V323.636H1060.86V334ZM1071.73 334.216C1074.02 334.216 1075.53 332.812 1075.8 330.977H1074.21C1073.91 332.111 1072.97 332.786 1071.73 332.786C1069.84 332.786 1068.62 331.22 1068.62 328.818C1068.62 326.47 1069.86 324.932 1071.73 324.932C1073.13 324.932 1073.97 325.795 1074.21 326.74H1075.8C1075.53 324.797 1073.88 323.501 1071.7 323.501C1068.89 323.501 1067.03 325.714 1067.03 328.872C1067.03 331.976 1068.81 334.216 1071.73 334.216ZM1079.63 327.766C1079.63 325.957 1080.78 324.932 1082.35 324.932C1083.85 324.932 1084.75 325.876 1084.75 327.523V334H1086.35V327.415C1086.35 324.75 1084.93 323.501 1082.81 323.501C1081.18 323.501 1080.25 324.183 1079.76 325.256H1079.63V320.182H1078.03V334H1079.63V327.766ZM1092.21 334.243C1094.02 334.243 1094.97 333.271 1095.29 332.597H1095.37V334H1096.96V327.172C1096.96 323.879 1094.45 323.501 1093.13 323.501C1091.57 323.501 1089.78 324.041 1088.98 325.93L1090.49 326.47C1090.84 325.714 1091.67 324.905 1093.19 324.905C1094.65 324.905 1095.37 325.681 1095.37 327.01V327.064C1095.37 327.833 1094.59 327.766 1092.7 328.009C1090.78 328.258 1088.68 328.683 1088.68 331.058C1088.68 333.082 1090.24 334.243 1092.21 334.243ZM1092.46 332.812C1091.19 332.812 1090.27 332.246 1090.27 331.139C1090.27 329.925 1091.38 329.547 1092.62 329.385C1093.29 329.304 1095.1 329.115 1095.37 328.791V330.249C1095.37 331.544 1094.35 332.812 1092.46 332.812ZM1099.77 334H1101.37V323.636H1099.77V334ZM1100.58 321.909C1101.21 321.909 1101.72 321.423 1101.72 320.83C1101.72 320.236 1101.21 319.75 1100.58 319.75C1099.96 319.75 1099.45 320.236 1099.45 320.83C1099.45 321.423 1099.96 321.909 1100.58 321.909ZM1105.78 327.766C1105.78 325.957 1106.9 324.932 1108.43 324.932C1109.9 324.932 1110.8 325.897 1110.8 327.523V334H1112.39V327.415C1112.39 324.77 1110.98 323.501 1108.88 323.501C1107.32 323.501 1106.35 324.203 1105.86 325.256H1105.73V323.636H1104.19V334H1105.78V327.766ZM1130.12 324.5H1131.85C1131.33 321.828 1129.09 319.993 1126.18 319.993C1122.64 319.993 1120.13 322.719 1120.13 327.091C1120.13 331.463 1122.62 334.189 1126.29 334.189C1129.58 334.189 1131.93 331.996 1131.93 328.575V327.091H1126.66V328.575H1130.31C1130.26 331.058 1128.63 332.624 1126.29 332.624C1123.72 332.624 1121.75 330.68 1121.75 327.091C1121.75 323.501 1123.72 321.558 1126.18 321.558C1128.18 321.558 1129.53 322.685 1130.12 324.5ZM1134.48 334H1136.07V327.523C1136.07 326.005 1137.18 324.932 1138.42 324.932C1139.63 324.932 1140.47 325.721 1140.47 326.902V334H1142.09V327.253C1142.09 325.917 1142.93 324.932 1144.39 324.932C1145.52 324.932 1146.49 325.532 1146.49 327.064V334H1148.08V327.064C1148.08 324.628 1146.78 323.501 1144.93 323.501C1143.44 323.501 1142.36 324.183 1141.82 325.256H1141.71C1141.2 324.149 1140.3 323.501 1138.94 323.501C1137.59 323.501 1136.59 324.149 1136.16 325.256H1136.02V323.636H1134.48V334ZM1151.12 334H1152.65V332.408H1152.84C1153.19 332.974 1153.87 334.216 1155.87 334.216C1158.46 334.216 1160.27 332.138 1160.27 328.845C1160.27 325.58 1158.46 323.501 1155.84 323.501C1153.82 323.501 1153.19 324.743 1152.84 325.283H1152.71V320.182H1151.12V334ZM1152.68 328.818C1152.68 326.497 1153.71 324.932 1155.65 324.932C1157.67 324.932 1158.67 326.632 1158.67 328.818C1158.67 331.031 1157.65 332.786 1155.65 332.786C1153.73 332.786 1152.68 331.166 1152.68 328.818ZM1162.82 334H1164.5V327.82H1171.86V334H1173.54V320.182H1171.86V326.335H1164.5V320.182H1162.82V334Z" fill="#989BB9"/>
<path d="M1101 355L1125 401H1077L1101 355Z" fill="url(#paint23_linear)"/>
<path d="M1101 447L1125 401H1077L1101 447Z" fill="url(#paint24_linear)"/>
<path d="M1101 355L1112.96 401H1089.04L1101 355Z" fill="url(#paint25_linear)"/>
<path d="M1101 447L1112.96 401H1089.04L1101 447Z" fill="url(#paint26_linear)"/>
<defs>
<filter id="filter0_i" x="0.5" y="245.503" width="1389" height="905" filterUnits="userSpaceOnUse" color-interpolation-filters="sRGB">
<feFlood flood-opacity="0" result="BackgroundImageFix"/>
<feBlend mode="normal" in="SourceGraphic" in2="BackgroundImageFix" result="shape"/>
<feColorMatrix in="SourceAlpha" type="matrix" values="0 0 0 0 0 0 0 0 0 0 0 0 0 0 0 0 0 0 127 0" result="hardAlpha"/>
<feOffset dx="3" dy="3"/>
<feComposite in2="hardAlpha" operator="arithmetic" k2="-1" k3="1"/>
<feColorMatrix type="matrix" values="0 0 0 0 0.388235 0 0 0 0 0.423529 0 0 0 0 0.741176 0 0 0 1 0"/>
<feBlend mode="normal" in2="shape" result="effect1_innerShadow"/>
</filter>
<filter id="filter1_i" x="155.5" y="291.5" width="1079" height="703" filterUnits="userSpaceOnUse" color-interpolation-filters="sRGB">
<feFlood flood-opacity="0" result="BackgroundImageFix"/>
<feBlend mode="normal" in="SourceGraphic" in2="BackgroundImageFix" result="shape"/>
<feColorMatrix in="SourceAlpha" type="matrix" values="0 0 0 0 0 0 0 0 0 0 0 0 0 0 0 0 0 0 127 0" result="hardAlpha"/>
<feOffset dx="-5" dy="-2"/>
<feComposite in2="hardAlpha" operator="arithmetic" k2="-1" k3="1"/>
<feColorMatrix type="matrix" values="0 0 0 0 0.388235 0 0 0 0 0.423529 0 0 0 0 0.741176 0 0 0 1 0"/>
<feBlend mode="normal" in2="shape" result="effect1_innerShadow"/>
</filter>
<filter id="filter2_i" x="314.5" y="336.503" width="761" height="496" filterUnits="userSpaceOnUse" color-interpolation-filters="sRGB">
<feFlood flood-opacity="0" result="BackgroundImageFix"/>
<feBlend mode="normal" in="SourceGraphic" in2="BackgroundImageFix" result="shape"/>
<feColorMatrix in="SourceAlpha" type="matrix" values="0 0 0 0 0 0 0 0 0 0 0 0 0 0 0 0 0 0 127 0" result="hardAlpha"/>
<feOffset dx="5" dy="-2"/>
<feComposite in2="hardAlpha" operator="arithmetic" k2="-1" k3="1"/>
<feColorMatrix type="matrix" values="0 0 0 0 0.388235 0 0 0 0 0.423529 0 0 0 0 0.741176 0 0 0 1 0"/>
<feBlend mode="normal" in2="shape" result="effect1_innerShadow"/>
</filter>
<filter id="filter3_ddd" x="246.793" y="97.7934" width="896.413" height="896.413" filterUnits="userSpaceOnUse" color-interpolation-filters="sRGB">
<feFlood flood-opacity="0" result="BackgroundImageFix"/>
<feColorMatrix in="SourceAlpha" type="matrix" values="0 0 0 0 0 0 0 0 0 0 0 0 0 0 0 0 0 0 127 0"/>
<feOffset dy="79.7521"/>
<feGaussianBlur stdDeviation="71.7769"/>
<feColorMatrix type="matrix" values="0 0 0 0 0.15 0 0 0 0 0.235 0 0 0 0 1 0 0 0 0.7 0"/>
<feBlend mode="normal" in2="BackgroundImageFix" result="effect1_dropShadow"/>
<feColorMatrix in="SourceAlpha" type="matrix" values="0 0 0 0 0 0 0 0 0 0 0 0 0 0 0 0 0 0 127 0"/>
<feOffset/>
<feGaussianBlur stdDeviation="39.876"/>
<feColorMatrix type="matrix" values="0 0 0 0 0.14902 0 0 0 0 0.235294 0 0 0 0 1 0 0 0 1 0"/>
<feBlend mode="normal" in2="effect1_dropShadow" result="effect2_dropShadow"/>
<feColorMatrix in="SourceAlpha" type="matrix" values="0 0 0 0 0 0 0 0 0 0 0 0 0 0 0 0 0 0 127 0"/>
<feOffset/>
<feGaussianBlur stdDeviation="127.603"/>
<feColorMatrix type="matrix" values="0 0 0 0 0.175 0 0 0 0 0.4555 0 0 0 0 1 0 0 0 1 0"/>
<feBlend mode="normal" in2="effect2_dropShadow" result="effect3_dropShadow"/>
<feBlend mode="normal" in="SourceGraphic" in2="effect3_dropShadow" result="shape"/>
</filter>
<filter id="filter4_d" x="546.756" y="537.409" width="128.143" height="114.377" filterUnits="userSpaceOnUse" color-interpolation-filters="sRGB">
<feFlood flood-opacity="0" result="BackgroundImageFix"/>
<feColorMatrix in="SourceAlpha" type="matrix" values="0 0 0 0 0 0 0 0 0 0 0 0 0 0 0 0 0 0 127 0"/>
<feOffset/>
<feGaussianBlur stdDeviation="6.34868"/>
<feColorMatrix type="matrix" values="0 0 0 0 1 0 0 0 0 1 0 0 0 0 1 0 0 0 0.5 0"/>
<feBlend mode="normal" in2="BackgroundImageFix" result="effect1_dropShadow"/>
<feBlend mode="normal" in="SourceGraphic" in2="effect1_dropShadow" result="shape"/>
</filter>
<filter id="filter5_d" x="630.929" y="586.005" width="128.143" height="114.377" filterUnits="userSpaceOnUse" color-interpolation-filters="sRGB">
<feFlood flood-opacity="0" result="BackgroundImageFix"/>
<feColorMatrix in="SourceAlpha" type="matrix" values="0 0 0 0 0 0 0 0 0 0 0 0 0 0 0 0 0 0 127 0"/>
<feOffset/>
<feGaussianBlur stdDeviation="6.34868"/>
<feColorMatrix type="matrix" values="0 0 0 0 1 0 0 0 0 1 0 0 0 0 1 0 0 0 0.5 0"/>
<feBlend mode="normal" in2="BackgroundImageFix" result="effect1_dropShadow"/>
<feBlend mode="normal" in="SourceGraphic" in2="effect1_dropShadow" result="shape"/>
</filter>
<filter id="filter6_d" x="715.101" y="537.408" width="128.143" height="114.377" filterUnits="userSpaceOnUse" color-interpolation-filters="sRGB">
<feFlood flood-opacity="0" result="BackgroundImageFix"/>
<feColorMatrix in="SourceAlpha" type="matrix" values="0 0 0 0 0 0 0 0 0 0 0 0 0 0 0 0 0 0 127 0"/>
<feOffset/>
<feGaussianBlur stdDeviation="6.34868"/>
<feColorMatrix type="matrix" values="0 0 0 0 1 0 0 0 0 1 0 0 0 0 1 0 0 0 0.5 0"/>
<feBlend mode="normal" in2="BackgroundImageFix" result="effect1_dropShadow"/>
<feBlend mode="normal" in="SourceGraphic" in2="effect1_dropShadow" result="shape"/>
</filter>
<filter id="filter7_d" x="715.101" y="440.215" width="128.143" height="114.377" filterUnits="userSpaceOnUse" color-interpolation-filters="sRGB">
<feFlood flood-opacity="0" result="BackgroundImageFix"/>
<feColorMatrix in="SourceAlpha" type="matrix" values="0 0 0 0 0 0 0 0 0 0 0 0 0 0 0 0 0 0 127 0"/>
<feOffset/>
<feGaussianBlur stdDeviation="6.34868"/>
<feColorMatrix type="matrix" values="0 0 0 0 1 0 0 0 0 1 0 0 0 0 1 0 0 0 0.5 0"/>
<feBlend mode="normal" in2="BackgroundImageFix" result="effect1_dropShadow"/>
<feBlend mode="normal" in="SourceGraphic" in2="effect1_dropShadow" result="shape"/>
</filter>
<filter id="filter8_d" x="630.929" y="391.617" width="128.143" height="114.377" filterUnits="userSpaceOnUse" color-interpolation-filters="sRGB">
<feFlood flood-opacity="0" result="BackgroundImageFix"/>
<feColorMatrix in="SourceAlpha" type="matrix" values="0 0 0 0 0 0 0 0 0 0 0 0 0 0 0 0 0 0 127 0"/>
<feOffset/>
<feGaussianBlur stdDeviation="6.34868"/>
<feColorMatrix type="matrix" values="0 0 0 0 1 0 0 0 0 1 0 0 0 0 1 0 0 0 0.5 0"/>
<feBlend mode="normal" in2="BackgroundImageFix" result="effect1_dropShadow"/>
<feBlend mode="normal" in="SourceGraphic" in2="effect1_dropShadow" result="shape"/>
</filter>
<filter id="filter9_d" x="546.756" y="440.215" width="128.143" height="114.377" filterUnits="userSpaceOnUse" color-interpolation-filters="sRGB">
<feFlood flood-opacity="0" result="BackgroundImageFix"/>
<feColorMatrix in="SourceAlpha" type="matrix" values="0 0 0 0 0 0 0 0 0 0 0 0 0 0 0 0 0 0 127 0"/>
<feOffset/>
<feGaussianBlur stdDeviation="6.34868"/>
<feColorMatrix type="matrix" values="0 0 0 0 1 0 0 0 0 1 0 0 0 0 1 0 0 0 0.5 0"/>
<feBlend mode="normal" in2="BackgroundImageFix" result="effect1_dropShadow"/>
<feBlend mode="normal" in="SourceGraphic" in2="effect1_dropShadow" result="shape"/>
</filter>
<filter id="filter10_d" x="630.928" y="488.812" width="128.143" height="114.377" filterUnits="userSpaceOnUse" color-interpolation-filters="sRGB">
<feFlood flood-opacity="0" result="BackgroundImageFix"/>
<feColorMatrix in="SourceAlpha" type="matrix" values="0 0 0 0 0 0 0 0 0 0 0 0 0 0 0 0 0 0 127 0"/>
<feOffset/>
<feGaussianBlur stdDeviation="6.34868"/>
<feColorMatrix type="matrix" values="0 0 0 0 1 0 0 0 0 1 0 0 0 0 1 0 0 0 0.5 0"/>
<feBlend mode="normal" in2="BackgroundImageFix" result="effect1_dropShadow"/>
<feBlend mode="normal" in="SourceGraphic" in2="effect1_dropShadow" result="shape"/>
</filter>
<radialGradient id="paint0_radial" cx="0" cy="0" r="1" gradientUnits="userSpaceOnUse" gradientTransform="translate(570 570) rotate(90) scale(570)">
<stop offset="0.197917" stop-color="#4B7DFE" stop-opacity="0.26"/>
<stop offset="1" stop-color="#4251FA" stop-opacity="0"/>
</radialGradient>
<radialGradient id="paint1_angular" cx="0" cy="0" r="1" gradientUnits="userSpaceOnUse" gradientTransform="translate(695 597) rotate(90) scale(323)">
<stop stop-color="#CE5990"/>
<stop offset="0.203125" stop-color="#39C353"/>
<stop offset="0.3125" stop-color="#DD8AEA"/>
<stop offset="0.5" stop-color="#A0BCFE"/>
<stop offset="0.682292" stop-color="#848484"/>
<stop offset="0.802083" stop-color="#00BB00"/>
</radialGradient>
<linearGradient id="paint2_linear" x1="502" y1="353" x2="888" y2="739" gradientUnits="userSpaceOnUse">
<stop offset="0.151042" stop-color="#B0CBFF" stop-opacity="0.86"/>
<stop offset="0.6875" stop-color="#6A9DFF"/>
</linearGradient>
<linearGradient id="paint3_linear" x1="1101" y1="666.003" x2="1101" y2="712.003" gradientUnits="userSpaceOnUse">
<stop stop-color="#5FCF5F"/>
<stop offset="1" stop-color="#42CD42"/>
</linearGradient>
<linearGradient id="paint4_linear" x1="1101" y1="712.003" x2="1101" y2="758.003" gradientUnits="userSpaceOnUse">
<stop stop-color="#36B836"/>
<stop offset="1" stop-color="#177617"/>
</linearGradient>
<linearGradient id="paint5_linear" x1="1101" y1="666.003" x2="1101" y2="712.003" gradientUnits="userSpaceOnUse">
<stop stop-color="#74D474"/>
<stop offset="1" stop-color="#68F668"/>
</linearGradient>
<linearGradient id="paint6_linear" x1="1101" y1="712.003" x2="1101" y2="758.003" gradientUnits="userSpaceOnUse">
<stop stop-color="#40CC40"/>
<stop offset="1" stop-color="#179417"/>
</linearGradient>
<linearGradient id="paint7_linear" x1="693" y1="195" x2="693" y2="241" gradientUnits="userSpaceOnUse">
<stop stop-color="#83A3F1"/>
<stop offset="1" stop-color="#6D95F8"/>
</linearGradient>
<linearGradient id="paint8_linear" x1="693" y1="241" x2="693" y2="287" gradientUnits="userSpaceOnUse">
<stop stop-color="#5E83E0"/>
<stop offset="1" stop-color="#355094"/>
</linearGradient>
<linearGradient id="paint9_linear" x1="693" y1="195" x2="693" y2="241" gradientUnits="userSpaceOnUse">
<stop stop-color="#92ADF0"/>
<stop offset="1" stop-color="#A1BDFF"/>
</linearGradient>
<linearGradient id="paint10_linear" x1="693" y1="241" x2="693" y2="287" gradientUnits="userSpaceOnUse">
<stop stop-color="#6B94F7"/>
<stop offset="1" stop-color="#3D61B9"/>
</linearGradient>
<linearGradient id="paint11_linear" x1="290" y1="353" x2="290" y2="399" gradientUnits="userSpaceOnUse">
<stop offset="0.333333" stop-color="#DA78E7"/>
<stop offset="1" stop-color="#8F82FF"/>
</linearGradient>
<linearGradient id="paint12_linear" x1="290" y1="399" x2="290" y2="445" gradientUnits="userSpaceOnUse">
<stop stop-color="#7D70F3"/>
<stop offset="1" stop-color="#4F45A6"/>
</linearGradient>
<linearGradient id="paint13_linear" x1="290" y1="353" x2="290" y2="399" gradientUnits="userSpaceOnUse">
<stop offset="0.302083" stop-color="#DD89E9"/>
<stop offset="1" stop-color="#B8B0FF"/>
</linearGradient>
<linearGradient id="paint14_linear" x1="290" y1="399" x2="290" y2="445" gradientUnits="userSpaceOnUse">
<stop stop-color="#8E81FF"/>
<stop offset="1" stop-color="#5D50CD"/>
</linearGradient>
<radialGradient id="paint15_angular" cx="0" cy="0" r="1" gradientUnits="userSpaceOnUse" gradientTransform="translate(696 839.003) rotate(90) scale(23 24)">
<stop offset="0.140625" stop-color="#8787FF"/>
<stop offset="0.5" stop-color="#7ABDD6"/>
<stop offset="0.859375" stop-color="#40CA54"/>
</radialGradient>
<radialGradient id="paint16_angular" cx="0" cy="0" r="1" gradientUnits="userSpaceOnUse" gradientTransform="translate(696 885.003) rotate(90) scale(23 24)">
<stop offset="0.359375" stop-color="#D553A0"/>
<stop offset="0.630208" stop-color="#988618"/>
<stop offset="1" stop-color="#B5393F"/>
</radialGradient>
<linearGradient id="paint17_linear" x1="696" y1="816.003" x2="696" y2="862.003" gradientUnits="userSpaceOnUse">
<stop offset="0.302083" stop-color="#7ABDD7"/>
<stop offset="1" stop-color="#B3B3FF"/>
</linearGradient>
<linearGradient id="paint18_linear" x1="696" y1="862.003" x2="696" y2="908.003" gradientUnits="userSpaceOnUse">
<stop stop-color="#8686FF"/>
<stop offset="0.6875" stop-color="#B73A41"/>
</linearGradient>
<linearGradient id="paint19_linear" x1="290" y1="666.003" x2="290" y2="712.003" gradientUnits="userSpaceOnUse">
<stop stop-color="#5FCD74"/>
<stop offset="1" stop-color="#83E296"/>
</linearGradient>
<linearGradient id="paint20_linear" x1="290" y1="712.003" x2="290" y2="758.003" gradientUnits="userSpaceOnUse">
<stop stop-color="#33B54C"/>
<stop offset="1" stop-color="#147126"/>
</linearGradient>
<linearGradient id="paint21_linear" x1="290" y1="666.003" x2="290" y2="712.003" gradientUnits="userSpaceOnUse">
<stop stop-color="#73CF85"/>
<stop offset="1" stop-color="#C4F8CE"/>
</linearGradient>
<linearGradient id="paint22_linear" x1="290" y1="712.003" x2="290" y2="758.003" gradientUnits="userSpaceOnUse">
<stop stop-color="#3DC958"/>
<stop offset="1" stop-color="#15922E"/>
</linearGradient>
<linearGradient id="paint23_linear" x1="1101" y1="355" x2="1101" y2="401" gradientUnits="userSpaceOnUse">
<stop stop-color="#A2A2A2"/>
<stop offset="1" stop-color="#BCBCBC"/>
</linearGradient>
<linearGradient id="paint24_linear" x1="1101" y1="401" x2="1101" y2="447" gradientUnits="userSpaceOnUse">
<stop stop-color="#929292"/>
<stop offset="1" stop-color="#494949"/>
</linearGradient>
<linearGradient id="paint25_linear" x1="1101" y1="355" x2="1101" y2="401" gradientUnits="userSpaceOnUse">
<stop stop-color="#ACACAC"/>
<stop offset="1" stop-color="#E4E4E4"/>
</linearGradient>
<linearGradient id="paint26_linear" x1="1101" y1="401" x2="1101" y2="447" gradientUnits="userSpaceOnUse">
<stop stop-color="#A8A8A8"/>
<stop offset="1" stop-color="#626262"/>
</linearGradient>
</defs>
</svg>
