<svg width="48" height="48" viewBox="0 0 48 48" fill="none" xmlns="http://www.w3.org/2000/svg">
<path fill-rule="evenodd" clip-rule="evenodd" d="M31.6328 16.0643C29.2205 15.1176 26.6225 14.623 23.9987 14.623C18.4841 14.623 13.297 16.7783 9.39303 20.6916C5.50602 24.5877 3.34648 29.763 3.31173 35.2642L3.30713 36.003L3.95195 36.3681C7.05975 38.1283 10.5743 39.0544 14.1357 39.0544C14.2336 39.0544 14.3323 39.0537 14.4305 39.0522C17.5349 39.0078 20.6062 38.2646 23.3906 36.8931C22.5126 36.4042 21.6713 35.8537 20.8715 35.2467C16.0182 37.15 10.5179 36.9153 5.86307 34.5315C6.31585 24.8778 14.3001 17.1449 23.9987 17.1449C26.6962 17.1449 29.3606 17.7389 31.767 18.8676C31.7979 17.933 31.7534 16.9963 31.6328 16.0643Z" fill="white"/>
<path fill-rule="evenodd" clip-rule="evenodd" d="M44.6854 35.0927C44.6115 28.2532 41.2659 22.0131 35.6889 18.2119C35.6931 19.2127 35.6259 20.213 35.4878 21.2073C39.4506 24.4283 41.8665 29.1714 42.1308 34.3678C33.5827 38.7526 22.922 35.6818 18.066 27.3028C16.7543 25.0395 15.9501 22.509 15.7138 19.9233C14.8888 20.3712 14.1008 20.8864 13.3569 21.4641C13.7492 23.9525 14.6016 26.369 15.8736 28.5638C18.636 33.3301 23.077 36.7473 28.3783 38.1855C30.1769 38.6736 32.0056 38.915 33.8242 38.915C37.3676 38.915 40.8732 37.9985 44.0452 36.2026L44.6932 35.8354L44.6854 35.0927Z" fill="white"/>
<path fill-rule="evenodd" clip-rule="evenodd" d="M24.7298 0.373344L24.0904 0L23.4509 0.372771C20.2913 2.21347 17.6663 4.85256 15.8596 8.00449C14.2994 10.7266 13.3766 13.7758 13.1602 16.8883C14.0251 16.3765 14.9262 15.9265 15.8579 15.5419C16.6604 10.411 19.6578 5.77383 24.0893 2.9401C32.2284 8.14973 34.905 18.9513 30.0161 27.3868C28.6922 29.6713 26.8819 31.6465 24.7372 33.163C25.5383 33.6493 26.3794 34.0714 27.2534 34.4245C29.2361 32.8243 30.924 30.864 32.2085 28.6477C37.9165 18.7988 34.5614 6.11508 24.7298 0.373344Z" fill="white"/>
<path fill-rule="evenodd" clip-rule="evenodd" d="M24 21.8889C22.8359 21.8889 21.8891 22.8359 21.8891 23.9999C21.8891 25.1639 22.8359 26.1109 24 26.1109C25.164 26.1109 26.111 25.1639 26.111 23.9999C26.111 22.8359 25.164 21.8889 24 21.8889ZM24 28.6459C21.4381 28.6459 19.354 26.5619 19.354 24C19.354 21.4382 21.4381 19.354 24 19.354C26.5619 19.354 28.6462 21.4382 28.6462 24C28.6462 26.5619 26.5619 28.6459 24 28.6459Z" fill="white"/>
</svg>
